<svg width="139" height="55" viewBox="0 0 139 55" fill="none" xmlns="http://www.w3.org/2000/svg">
<path d="M42.1444 16.723C38.9652 16.0076 37.3536 14.9177 37.3536 13.4824C37.3536 11.3651 38.5778 10.2547 41.073 10.0878C43.4799 10.0878 44.7712 11.1228 45.0263 13.2823C45.1503 13.882 45.5767 14.2125 46.2275 14.2125H47.2306L47.2095 13.843C46.987 9.91521 44.9688 7.92383 41.1931 7.92383C37.1567 8.11434 35.157 10.0789 35.2522 13.7631C35.3174 16.1726 37.1413 17.8354 40.6683 18.7042C43.7957 19.5231 45.3805 20.7237 45.3805 22.2733C45.3805 24.5607 44.0073 25.6884 41.1823 25.7223C41.1516 25.7223 41.1203 25.7229 41.0896 25.7229C38.3253 25.7229 36.9406 24.218 36.8562 21.1245L36.8466 20.7844H34.6475L34.6654 21.1507C34.8827 25.6232 36.9444 27.8895 40.791 27.8888C40.8543 27.8888 40.9182 27.8882 40.9828 27.8869C45.2948 27.8869 47.4812 25.9435 47.4812 22.1103C47.4805 19.4464 45.6893 17.6346 42.1444 16.723Z" fill="#333333"/>
<path d="M57.6771 12.1023C56.7035 12.1023 55.8059 12.3887 55.0107 12.9538C54.6188 13.2319 54.2819 13.558 54.0025 13.9281V9.14175C54.0025 8.51525 53.6694 8.14062 53.11 8.14062H51.7656V27.7246H54.0019V19.995C54.0019 18.4613 54.2806 17.067 54.8297 15.8524C55.3456 14.7125 56.2771 14.1583 57.6765 14.1583C58.4046 14.1583 58.9806 14.3826 59.4384 14.8436C60.3059 15.7175 60.7361 17.45 60.7176 19.995V27.7246H62.9091V19.7233C62.9091 17.3259 62.569 15.4554 61.8977 14.1627C61.1881 12.7953 59.7676 12.1023 57.6771 12.1023Z" fill="#333333"/>
<path d="M76.6295 13.0069C75.7742 12.4066 74.5122 12.1023 72.8795 12.1023C69.7872 12.1023 68.1027 13.3962 67.8738 15.9483L67.84 16.3293H70.0161L70.0596 16.0301C70.243 14.7707 71.1802 14.1582 72.9236 14.1582C75.528 14.1582 75.8292 15.1977 75.8292 15.9796C75.8292 16.5792 75.4839 17.0856 74.7622 17.535C74.323 17.8322 73.5309 18.088 72.4198 18.2932C68.8622 18.827 67.0581 20.5499 67.0581 23.4145C67.0581 26.3418 68.7113 27.8889 71.8387 27.8889C75.911 27.8889 77.9759 26.1283 77.9759 22.655V15.9789C77.9765 14.6345 77.5233 13.634 76.6295 13.0069ZM75.7403 22.8168C75.7403 24.8817 74.4643 25.886 71.8393 25.886C70.1344 25.886 69.3404 25.0831 69.3404 23.3595C69.3404 21.7262 70.3134 20.7378 72.315 20.3376L72.3182 20.337C73.8467 20.0167 74.9757 19.6421 75.7403 19.1997V22.8168Z" fill="#333333"/>
<path d="M92.9192 8.14062H91.6202V13.9281C91.3402 13.5573 91.0039 13.2319 90.6127 12.9538C89.818 12.3887 88.9205 12.1023 87.9456 12.1023C85.8333 12.1023 84.3023 12.8816 83.3951 14.4178C82.5231 15.8952 82.0801 17.7715 82.0801 19.995C82.0801 22.2555 82.5225 24.142 83.3957 25.6015C84.3035 27.1186 85.834 27.8883 87.9456 27.8883C90.0175 27.8883 91.5441 27.1985 92.4839 25.8374C93.3949 24.5179 93.8564 22.5521 93.8564 19.995V9.14175C93.8558 8.51525 93.5061 8.14062 92.9192 8.14062ZM90.7917 24.1919C90.2758 25.3311 89.345 25.8854 87.9449 25.8854C86.5455 25.8854 85.6141 25.3311 85.0988 24.1919C84.5497 22.9766 84.2709 21.5644 84.2709 19.9943C84.2709 18.4607 84.5497 17.0664 85.0988 15.8517C85.6147 14.7119 86.5455 14.1583 87.9449 14.1583C89.345 14.1583 90.2758 14.7125 90.7917 15.8517C91.3408 17.067 91.6196 18.4607 91.6196 19.9943C91.6196 21.5644 91.3415 22.9766 90.7917 24.1919Z" fill="#333333"/>
<path d="M99.531 8.14062H98.1865V10.6307H100.423V9.14175C100.423 8.51525 100.09 8.14062 99.531 8.14062Z" fill="#333333"/>
<path d="M99.531 12.3191H98.1865V27.7247H100.423V13.3746C100.423 12.3952 99.7406 12.3191 99.531 12.3191Z" fill="#333333"/>
<path d="M106.015 24.7444H103.697V27.5253H106.015V24.7444Z" fill="#CF3533"/>
<path d="M115.739 8.14014H109.862C109.275 8.14014 108.924 8.51412 108.924 9.14126V27.7241H111.161V19.2587H115.299C118.849 19.1436 120.682 17.2941 120.746 13.7601C120.779 11.855 120.332 10.4115 119.417 9.4705C118.578 8.60618 117.342 8.15868 115.739 8.14014ZM115.287 17.094H111.161V10.3048H115.542C117.712 10.4051 118.683 11.4791 118.599 13.6872C118.516 16.0117 117.463 17.094 115.287 17.094Z" fill="#CF3533"/>
<path d="M131.059 16.004L137.611 8.14014H134.577L127.312 16.8083V8.14014H126.013C125.426 8.14014 125.076 8.51412 125.076 9.14126V27.7241H127.312V20.2655C127.312 19.4664 127.645 18.9217 128.332 18.6015C128.57 18.4909 129.295 18.1514 130.288 19.4798L135.681 27.7241H138.685L131.059 16.004Z" fill="#CF3533"/>
<g opacity="0.7">
<path d="M138.748 33.9954H2.19434V34.4147H138.748V33.9954Z" fill="#333333"/>
</g>
<path d="M6.74858 47.7286C6.74858 47.1124 7.40066 46.638 8.76298 46.638H8.95285C8.95413 46.638 8.95541 46.638 8.95669 46.638C9.72511 46.6361 10.4219 46.2698 10.7179 45.7494C10.8714 46.1643 11.2389 46.6387 11.9978 46.6387C12.9816 46.6387 13.7641 45.8683 13.7641 44.5175C13.7641 43.8654 13.6337 43.2728 13.4797 42.9768L12.6141 43.2255C12.8154 43.6282 13.0174 44.2682 13.0174 44.6831C13.0174 45.2162 12.6262 45.596 12.1045 45.596C11.6538 45.596 11.2747 45.4183 11.2984 44.6716C11.2984 44.4229 11.3579 44.1857 11.393 44.0195L10.6463 44.0553C10.4207 45.2642 9.78073 45.5602 8.95157 45.5602H8.86974C7.77912 45.5602 6.8074 46.0345 6.3567 46.6623C6.15532 46.9468 5.98975 47.3853 5.98975 47.8597C5.98975 48.974 6.78374 49.5545 8.70353 49.5545C10.7659 49.5545 13.1715 49.424 14.5703 49.2348L14.8548 48.2752C13.5039 48.4293 10.0307 48.5597 8.67987 48.5597C7.1865 48.5584 6.74858 48.2503 6.74858 47.7286Z" fill="#CF3533"/>
<path d="M12.0559 51.2717C11.641 51.7576 11.3687 52.2671 11.3687 52.8834C11.3687 53.5476 11.7241 54.1875 12.0086 54.4599L12.7431 54.0923C12.4107 53.7132 12.2221 53.2625 12.2221 52.8476C12.2221 52.3023 12.4586 51.9232 12.7431 51.5441L12.0559 51.2717Z" fill="#CF3533"/>
<path d="M23.0051 43.1539C22.0213 42.7153 21.0495 42.2416 19.9589 42.2416C19.5562 42.2416 18.9393 42.3004 18.525 42.5024L18.3588 43.4741C18.8216 43.2728 19.4379 43.2018 19.9468 43.2018C20.9901 43.2018 22.2342 43.9248 23.1349 44.2445C22.791 44.3512 22.4477 44.529 21.8902 44.7776C20.5746 45.3818 19.2237 45.5601 17.8729 45.5601H17.7304C17.7284 45.5601 17.7278 45.5608 17.7259 45.5608C17.724 45.5608 17.7221 45.5601 17.7201 45.5601C16.914 45.5128 16.4166 45.1574 16.3693 43.889L16.1436 38.0344L15.2544 38.0939L15.4916 44.1857C15.5625 45.9993 16.3329 46.6393 17.7195 46.6393C17.7221 46.6393 17.724 46.6386 17.7265 46.6386C17.7278 46.6386 17.7284 46.6393 17.7297 46.6393H17.8601C19.661 46.6393 20.93 46.3784 22.6836 45.3594C23.6201 44.8141 24.2006 44.6006 24.7466 44.6006H24.9358L25.102 43.6167H24.6634C24.2019 43.6161 23.8707 43.5329 23.0051 43.1539Z" fill="#CF3533"/>
<path d="M22.2821 47.8833C21.926 47.8833 21.6895 48.132 21.6895 48.5232C21.6895 48.8672 21.926 49.1395 22.2821 49.1395C22.6382 49.1395 22.8625 48.8672 22.8625 48.5232C22.8632 48.132 22.6382 47.8833 22.2821 47.8833Z" fill="#CF3533"/>
<path d="M21.4879 49.3174C21.1439 49.3174 20.8716 49.5546 20.8716 49.9452C20.8716 50.3128 21.1324 50.5736 21.4879 50.5736C21.8203 50.5736 22.0683 50.3128 22.0683 49.9452C22.0683 49.5539 21.8203 49.3174 21.4879 49.3174Z" fill="#CF3533"/>
<path d="M21.3105 48.5232C21.3105 48.132 21.0382 47.8833 20.7064 47.8833C20.3746 47.8833 20.1138 48.132 20.1138 48.5232C20.1138 48.8672 20.374 49.1395 20.7064 49.1395C21.0503 49.1389 21.3105 48.8665 21.3105 48.5232Z" fill="#CF3533"/>
<path d="M32.6186 42.2654C32.9977 42.2654 33.2464 42.0161 33.2464 41.6133C33.2464 41.2457 32.997 40.9734 32.6295 40.9734C32.2625 40.9734 32.0132 41.2457 32.0132 41.6133C32.0138 42.0161 32.2631 42.2654 32.6186 42.2654Z" fill="#CF3533"/>
<path d="M39.7277 42.5142C38.827 42.5142 38.3533 43.0946 37.8553 44.5171C37.6181 45.2043 37.3688 45.5719 36.7883 45.5597C36.7627 45.5597 36.748 45.568 36.7244 45.5693C36.4226 45.5642 36.1266 45.5175 35.9252 45.4057C35.7712 44.4697 35.3326 43.4501 35.1664 43.1061L34.3008 43.4737C34.4907 43.8528 34.8583 44.588 35.0948 45.5482C35.1543 45.8091 35.1658 46.0104 35.1658 46.3422C35.1658 46.449 35.0827 46.7571 34.9523 46.9585C34.4549 47.8356 33.5656 48.1437 32.7831 48.1437C31.4675 48.1437 30.6498 47.3139 30.6498 46.0814C30.6498 45.5124 30.7803 45.0151 30.9465 44.4819L30.2471 44.3751C30.0099 44.8495 29.7964 45.5962 29.7964 46.2834C29.7964 48.014 30.8634 49.1992 32.6642 49.1992C34.063 49.1992 34.9989 48.5356 35.5449 47.6112C35.722 47.3152 35.8767 46.8645 35.924 46.5091C36.1017 46.6037 36.5019 46.6395 36.7749 46.6395H36.7992C36.819 46.6395 36.8324 46.6344 36.8516 46.6337C36.8951 46.6312 36.9379 46.6273 36.975 46.6203C37.5414 46.5743 37.8719 46.3198 38.1506 45.7624C38.9568 46.3787 39.644 46.6395 40.3076 46.6395C41.0664 46.6395 41.659 46.0232 41.659 45.1346C41.6603 44.0197 40.9488 42.5142 39.7277 42.5142ZM40.3562 45.5955C39.7284 45.5955 38.9817 45.2043 38.5431 44.8015C38.8864 43.6994 39.2189 43.4386 39.6804 43.4386C40.3325 43.4386 40.9136 44.3866 40.9136 45.0982C40.9136 45.4888 40.6643 45.5955 40.3562 45.5955Z" fill="#CF3533"/>
<path d="M49.4722 43.1775L48.9512 42.6917C48.0619 43.0592 46.9604 44.1499 46.9604 45.4885C46.9604 46.3541 47.4227 46.8042 47.991 46.8042C48.5484 46.8042 48.9512 46.413 48.9512 45.8318C48.9512 45.2156 48.4653 44.8723 47.8018 45.0142C47.8836 44.3749 48.5363 43.6046 49.4722 43.1775Z" fill="#CF3533"/>
<path d="M62.3073 48.345C61.964 48.345 61.7031 48.5943 61.7031 48.9734C61.7031 49.3646 61.964 49.6012 62.3073 49.6012C62.6633 49.6012 62.9114 49.3525 62.9114 48.9734C62.9114 48.5943 62.6627 48.345 62.3073 48.345Z" fill="#CF3533"/>
<path d="M63.8954 48.345C63.5515 48.345 63.3149 48.5943 63.3149 48.9734C63.3149 49.3646 63.5515 49.6012 63.8954 49.6012C64.2624 49.6012 64.4995 49.3525 64.4995 48.9734C64.4995 48.5943 64.2624 48.345 63.8954 48.345Z" fill="#CF3533"/>
<path d="M71.4909 42.5141C70.5901 42.5141 70.1164 43.0945 69.6184 44.517C69.3812 45.2042 69.1319 45.5718 68.5514 45.5596C68.5495 45.5596 68.5482 45.5603 68.5463 45.5603C68.5444 45.5603 68.5425 45.5596 68.5399 45.5596C67.6034 45.5238 67.2364 45.0501 67.1891 43.5568L66.9756 38.0339L66.0863 38.1049L66.2877 43.5683C66.3471 45.0252 65.9444 45.5584 64.9503 45.5596C64.1806 45.5354 63.5535 45.2509 63.5535 44.1967C63.5535 43.9595 63.6008 43.5804 63.6724 43.2013L62.9378 43.2486C62.8432 43.9243 62.3567 44.3149 61.6337 44.3149C60.816 44.3149 60.5673 43.971 60.1639 43.1419L59.3226 43.521C59.8686 44.6231 60.2119 45.5718 60.2119 46.1638C60.2119 46.9699 59.4889 48.143 57.7941 48.143C56.4784 48.143 55.6608 47.3132 55.6608 46.057C55.6608 45.5354 55.7797 45.0137 55.9453 44.4927L55.2695 44.3859C55.0439 44.8245 54.8188 45.5948 54.8188 46.2584C54.8188 48.0126 55.8737 49.1978 57.6752 49.1978C58.9557 49.1978 60.0578 48.5937 60.6268 47.5389C60.8518 47.0882 60.9937 46.5787 60.9937 46.0807C60.9937 45.8198 60.9228 45.4171 60.8512 45.1563C61.0174 45.2272 61.2904 45.2867 61.5384 45.2867C62.0601 45.2867 62.5696 45.1563 62.8662 44.7292C62.9014 46.0935 63.8354 46.6279 64.9273 46.6356C64.9311 46.6356 64.933 46.6368 64.9362 46.6368C64.9394 46.6368 64.942 46.6362 64.9445 46.6362C64.9471 46.6362 64.949 46.6368 64.9516 46.6368C64.9631 46.6368 64.972 46.6349 64.9835 46.6343C65.8594 46.6209 66.4948 46.2558 66.833 45.5111C67.0574 46.2693 67.6737 46.6368 68.538 46.6368H68.5623C68.5853 46.6368 68.6019 46.6305 68.6243 46.6298C68.662 46.6266 68.7004 46.6241 68.7336 46.6177C69.3032 46.5729 69.6344 46.3185 69.9137 45.7591C70.7199 46.3754 71.4071 46.6362 72.0707 46.6362C72.8295 46.6362 73.4222 46.0199 73.4222 45.1313C73.4234 44.0196 72.7119 42.5141 71.4909 42.5141ZM72.1187 45.5954C71.4909 45.5954 70.7442 45.2042 70.3056 44.8014C70.6489 43.6993 70.9814 43.4385 71.4429 43.4385C72.095 43.4385 72.6761 44.3865 72.6761 45.0981C72.6768 45.4887 72.4274 45.5954 72.1187 45.5954Z" fill="#CF3533"/>
<path d="M83.995 41.224C84.362 41.224 84.5992 40.9868 84.5992 40.5962C84.5992 40.2171 84.362 39.9678 83.995 39.9678C83.6511 39.9678 83.4146 40.2171 83.4146 40.5962C83.4139 40.9868 83.6511 41.224 83.995 41.224Z" fill="#CF3533"/>
<path d="M82.4064 41.224C82.7625 41.224 83.0105 40.9868 83.0105 40.5962C83.0105 40.2171 82.7618 39.9678 82.4064 39.9678C82.0624 39.9678 81.8022 40.2171 81.8022 40.5962C81.8022 40.9868 82.0624 41.224 82.4064 41.224Z" fill="#CF3533"/>
<path d="M79.9195 46.9231C80.6784 46.5555 81.1169 46.3663 81.6264 46.0933C82.2069 45.7737 82.7401 45.4298 83.0367 44.8493C83.2029 46.2103 84.0302 46.6374 85.0594 46.6387H85.0607H85.0613H85.0633C85.1483 46.6387 85.2199 46.6278 85.2845 46.6131C85.9627 46.5511 86.5253 46.2321 86.8028 45.7731C86.9217 46.2238 87.217 46.6387 87.9401 46.6387C88.6158 46.6387 89.0665 46.3305 89.3503 45.8089C89.5165 46.2238 89.8605 46.6387 90.6187 46.6387C91.6019 46.6387 92.3844 45.8683 92.3844 44.5175C92.3844 43.8654 92.2546 43.2728 92.1006 42.9768L91.235 43.2255C91.4363 43.6282 91.6377 44.2682 91.6377 44.6831C91.6377 45.2162 91.2471 45.596 90.7254 45.596C90.2747 45.596 89.8956 45.4183 89.9193 44.6716C89.9193 44.4229 89.9788 44.1857 90.0133 44.0195L89.2666 44.0553C89.0537 45.2642 88.674 45.6081 88.0462 45.6081C87.4772 45.6081 87.3705 45.1101 87.3941 44.6952C87.4063 44.4107 87.4772 44.1499 87.5603 43.8776L86.8015 43.9134C86.6116 44.9094 86.2082 45.5608 85.0588 45.5608C85.0422 45.5608 85.0319 45.5672 85.016 45.5678C83.9208 45.5141 83.6747 44.8391 83.6747 44.1032C83.6747 43.9607 83.6869 43.7356 83.7105 43.5458L83.0111 43.6052C82.7976 44.281 82.4307 44.6479 81.4705 45.1817C80.8305 45.5257 79.9771 45.8811 79.3371 46.2602C78.4715 46.7582 77.9863 47.4333 77.9863 48.1212C77.9863 49.1638 78.8628 49.6024 80.7001 49.6024C84.3031 49.6024 88.0602 49.3416 89.4354 49.1165L89.7429 48.157C87.5622 48.382 84.516 48.6077 80.8305 48.6077C79.2304 48.6077 78.7567 48.4178 78.7567 48.0387C78.758 47.6455 79.3269 47.1955 79.9195 46.9231Z" fill="#CF3533"/>
<path d="M89.5288 41.3997C89.5288 41.8025 89.7781 42.0397 90.1214 42.0397C90.4775 42.0397 90.7025 41.791 90.7025 41.3997C90.7025 41.0558 90.4769 40.7834 90.1214 40.7834C89.7781 40.7834 89.5288 41.0564 89.5288 41.3997Z" fill="#CF3533"/>
<path d="M89.351 40.6058C89.7186 40.6058 89.9442 40.3686 89.9442 39.978C89.9442 39.6104 89.7186 39.3496 89.351 39.3496C89.0077 39.3496 88.7705 39.6104 88.7705 39.978C88.7699 40.3808 89.007 40.6058 89.351 40.6058Z" fill="#CF3533"/>
<path d="M88.5565 42.0397C88.9004 42.0397 89.1498 41.791 89.1498 41.3997C89.1498 41.0558 88.9004 40.7834 88.5565 40.7834C88.2247 40.7834 87.9639 41.0564 87.9639 41.3997C87.9645 41.8031 88.2017 42.0397 88.5565 42.0397Z" fill="#CF3533"/>
<path d="M94.0546 42.4781C95.0506 44.481 95.1688 45.5358 95.1688 45.9744C95.1688 46.14 95.0621 46.5907 94.8844 46.934C94.3154 48.0003 93.4619 48.2618 92.9531 48.2618C92.5024 48.2618 92.0996 48.2145 91.5895 47.93L91.436 48.6645C91.6962 48.9605 92.2895 49.2572 93.0362 49.2572C94.0667 49.2572 95.1695 48.5105 95.7027 47.1475C95.8567 46.7684 95.9635 46.1994 95.9635 45.8197C95.9635 44.6818 95.4297 43.0701 94.9323 42.0984L94.0546 42.4781Z" fill="#CF3533"/>
<path d="M105.529 42.3836C106.299 43.9128 106.56 44.9676 106.56 45.667C106.56 45.7853 106.489 46.0583 106.417 46.1765C105.967 47.0894 105.007 47.4091 104.011 47.4091C102.743 47.4091 101.783 46.6745 101.783 45.3467C101.783 45.0981 101.83 44.4818 102.02 43.877L101.345 43.7587C101.084 44.2919 100.93 45.0744 100.93 45.6434C100.93 47.3381 102.091 48.4876 103.869 48.4876C105.292 48.4876 106.489 47.8713 107.069 46.6861C107.212 46.4016 107.342 45.8684 107.342 45.513C107.342 44.1852 106.809 42.8107 106.442 42.0876L105.529 42.3836Z" fill="#CF3533"/>
<path d="M124.002 43.6161C123.539 43.6161 123.208 43.5329 122.342 43.1538C121.358 42.7153 120.387 42.2416 119.296 42.2416C118.893 42.2416 118.276 42.3004 117.862 42.5024L117.696 43.4741C118.159 43.2728 118.775 43.2018 119.284 43.2018C120.327 43.2018 121.571 43.9248 122.472 44.2445C122.128 44.3512 121.785 44.529 121.227 44.7776C119.912 45.3818 118.561 45.5601 117.21 45.5601H117.067C117.04 45.5601 117.022 45.5697 116.996 45.5723H116.5C115.362 45.5601 114.698 46.1649 114.698 47.5637C114.698 48.0259 114.793 48.6543 114.876 48.9739L114.829 49.0097C114.212 48.405 113.94 47.6346 113.94 46.7102C113.94 45.7973 114.236 45.0506 114.84 43.7944L114.058 43.6525C113.619 44.6479 113.086 45.5723 111.758 45.5723H111.376C111.345 45.5691 111.318 45.5601 111.285 45.5601C110.479 45.5128 109.982 45.1574 109.934 43.889L109.709 38.0344L108.819 38.0939L109.057 44.1857C109.127 45.9987 109.897 46.6386 111.283 46.6393H111.283H111.603C112.279 46.6393 112.824 46.473 113.156 46.177C113.109 46.4615 113.097 46.7345 113.097 46.9116C113.097 48.263 113.808 49.5902 114.933 50.42L115.763 49.8395C115.609 49.2942 115.444 48.4766 115.444 47.813C115.444 46.9359 115.763 46.6399 116.51 46.6399H117.055C117.058 46.6399 117.06 46.6393 117.062 46.6393C117.064 46.6393 117.064 46.6399 117.066 46.6399H117.196C118.997 46.6399 120.266 46.3791 122.019 45.36C122.956 44.8147 123.536 44.6012 124.082 44.6012H124.272L124.438 43.6173H124.002V43.6161Z" fill="#CF3533"/>
<path d="M120.837 47.8833C120.471 47.8833 120.221 48.1441 120.221 48.5232C120.221 48.926 120.471 49.1753 120.825 49.1753C121.205 49.1753 121.442 48.9266 121.442 48.5232C121.442 48.1435 121.205 47.8833 120.837 47.8833Z" fill="#CF3533"/>
<g opacity="0.75">
<path d="M8.64096 28.4072C7.19041 28.4072 6.03394 28.2314 5.15939 27.8798C3.77085 27.3223 2.64059 26.4753 1.88815 25.4307C0.035487 22.8569 0.110284 19.3689 2.07034 16.9473C3.05805 15.7282 4.69079 15.0409 6.93405 14.8984C6.60674 12.6743 6.93981 10.9341 7.92687 9.71502C9.88821 7.29404 13.2835 6.49493 16.1878 7.77286C17.366 8.29133 18.4297 9.22213 19.2634 10.463C20.6059 12.4627 21.9995 16.7152 21.017 25.6205L20.9428 26.2911L20.2894 26.4606C15.2749 27.7615 11.4193 28.4072 8.64096 28.4072ZM7.85399 16.8284C6.35486 16.8284 4.48494 17.0764 3.59185 18.1798C2.18542 19.9168 2.13811 22.4286 3.47614 24.287C4.01122 25.0305 4.8455 25.6448 5.88754 26.0636C7.30804 26.6338 10.7602 26.8512 19.1394 24.7345C19.9602 16.4614 18.5614 12.9332 17.6358 11.5549C17.0099 10.6222 16.2357 9.93366 15.397 9.56479C13.3007 8.6423 10.8529 9.20999 9.4471 10.9476C8.50479 12.1111 8.71831 14.137 9.06289 15.6323L9.34417 16.8527L8.09181 16.8309C8.01509 16.829 7.93518 16.8284 7.85399 16.8284Z" fill="black"/>
</g>
<path d="M8.19516 27.9624C6.74397 27.9624 5.58813 27.786 4.71359 27.435C3.32505 26.8776 2.19479 26.0305 1.44235 24.9859C-0.410314 22.4121 -0.335517 18.9235 1.62454 16.5019C2.61224 15.2828 4.24563 14.5956 6.48825 14.453C6.16094 12.2289 6.49401 10.4894 7.48107 9.26964C9.44305 6.84865 12.8409 6.05145 15.742 7.32811C16.9202 7.84658 17.9833 8.77674 18.8176 10.0182C20.1601 12.0186 21.5537 16.2718 20.5699 25.1764L20.4964 25.847L19.8436 26.0165C14.8297 27.3161 10.9735 27.9624 8.19516 27.9624ZM7.40691 16.3836C5.90778 16.3836 4.03914 16.6317 3.14669 17.7345C1.74025 19.4714 1.69295 21.9832 3.03098 23.8422C3.56606 24.5857 4.40034 25.2001 5.44238 25.6188C6.8616 26.1884 10.3125 26.4083 18.6942 24.2897C19.5157 16.0173 18.1169 12.4885 17.1912 11.1095C16.5654 10.1768 15.7912 9.48891 14.9524 9.12004C12.8556 8.19627 10.4084 8.76588 9.00258 10.5022C8.06027 11.6657 8.27379 13.6922 8.61836 15.1869L8.89965 16.4073L7.64728 16.3856C7.56929 16.3843 7.4881 16.3836 7.40691 16.3836Z" fill="#C7151F"/>
<path d="M4.73359 23.9406C4.67541 23.9406 4.61852 23.9144 4.58016 23.8652C3.7542 22.8046 3.42305 21.331 3.73694 20.1106C3.94726 19.2911 4.43185 18.6818 5.10054 18.3941C5.19963 18.3526 5.31406 18.3973 5.35562 18.4964C5.39781 18.5949 5.35242 18.7093 5.25397 18.7521C4.69907 18.9912 4.29376 19.5078 4.11412 20.2078C3.82963 21.3151 4.13266 22.6569 4.88766 23.6261C4.95414 23.7111 4.93816 23.8332 4.85378 23.8991C4.81798 23.9272 4.77578 23.9406 4.73359 23.9406Z" fill="#C7151F"/>
<g opacity="0.75">
<path d="M20.2278 21.8873C18.7823 21.8873 17.6297 21.7121 16.7571 21.3618C15.3724 20.8056 14.2434 19.9605 13.4929 18.9172C11.6428 16.3479 11.7182 12.8657 13.6757 10.4485C14.6557 9.23706 16.2719 8.55174 18.4851 8.40279C18.1705 6.20555 18.5055 4.48331 19.4862 3.27249C21.4437 0.854063 24.8345 0.0575085 27.7317 1.33353C28.9087 1.85071 29.9705 2.7796 30.8016 4.0179C32.1377 6.00737 33.5256 10.2369 32.5481 19.0859L32.4714 19.7809L31.7951 19.956C26.8195 21.2461 22.9895 21.8873 20.2278 21.8873ZM19.4453 10.3986C17.9672 10.3986 16.1274 10.6422 15.2509 11.7239C13.8668 13.4321 13.8208 15.9029 15.1378 17.7319C15.6639 18.4633 16.4847 19.0674 17.5121 19.4797C18.6615 19.9413 21.8803 20.3671 30.606 18.1673C31.414 9.99206 30.0325 6.50793 29.119 5.14753C28.5021 4.22823 27.7407 3.55058 26.916 3.18875C24.8549 2.28096 22.4455 2.83906 21.0627 4.54787C20.1389 5.68837 20.3505 7.68551 20.69 9.15971L20.9815 10.4236L19.685 10.4012C19.6057 10.3993 19.5258 10.3986 19.4453 10.3986Z" fill="black"/>
</g>
<path d="M20.2278 21.4417C18.7823 21.4417 17.6297 21.2665 16.7571 20.9162C15.3724 20.3593 14.2434 19.5142 13.4929 18.4715C11.6428 15.9016 11.7182 12.4194 13.6757 10.0022C14.6564 8.79141 16.2719 8.10545 18.4851 7.95649C18.1705 5.75926 18.5055 4.03637 19.4862 2.82556C21.4437 0.409049 24.8326 -0.389423 27.7317 0.886598C28.9087 1.40442 29.9705 2.33267 30.8016 3.57161C32.1377 5.56108 33.5256 9.78998 32.5481 18.6397L32.4714 19.3346L31.7951 19.5097C26.8195 20.8004 22.9901 21.4417 20.2278 21.4417ZM19.4453 9.95363C17.9672 9.95363 16.1274 10.1972 15.2509 11.2789C13.8668 12.9871 13.8208 15.4579 15.1378 17.2869C15.6632 18.0176 16.4847 18.6218 17.5121 19.0347C18.6615 19.4957 21.8803 19.9214 30.606 17.7216C31.414 9.54641 30.0325 6.06292 29.119 4.70251C28.5021 3.78322 27.7407 3.10557 26.916 2.74309C24.8505 1.83338 22.4448 2.39404 21.0627 4.10222C20.1389 5.24271 20.3505 7.23985 20.69 8.71405L20.9815 9.97793L19.685 9.95555C19.6057 9.95427 19.5258 9.95363 19.4453 9.95363Z" fill="url(#paint0_linear_2415_319)"/>
<path d="M16.9016 17.9C16.8492 17.9 16.7968 17.8808 16.7552 17.8418C15.6857 16.8381 15.079 15.3058 15.2107 13.937C15.2995 13.0178 15.7183 12.2781 16.3908 11.8549C16.4905 11.7922 16.6229 11.8216 16.6862 11.922C16.7495 12.0217 16.7194 12.1541 16.6197 12.2167C16.0616 12.5677 15.7125 13.1936 15.6377 13.978C15.5175 15.2195 16.0724 16.6137 17.0493 17.5299C17.1356 17.6104 17.1401 17.7459 17.0589 17.8322C17.016 17.877 16.9585 17.9 16.9016 17.9Z" fill="#87191E"/>
<path d="M18.0051 11.5429C17.6905 11.5429 17.3805 11.3914 17.1919 11.1101C16.566 10.1774 15.7919 9.48888 14.9531 9.12001C14.4589 8.90201 14.2339 8.32473 14.4519 7.82992C14.6699 7.33512 15.2465 7.11072 15.7426 7.32808C16.9208 7.84655 17.984 8.77671 18.8182 10.0182C19.1194 10.467 18.9998 11.0756 18.551 11.3767C18.3829 11.4892 18.193 11.5429 18.0051 11.5429Z" fill="#C7151F"/>
<defs>
<linearGradient id="paint0_linear_2415_319" x1="12.1544" y1="10.8631" x2="32.8771" y2="10.8631" gradientUnits="userSpaceOnUse">
<stop stop-color="#742424"/>
<stop offset="0.6555" stop-color="#AE1A21"/>
<stop offset="1" stop-color="#C7151F"/>
</linearGradient>
</defs>
</svg>
