<svg width="19" height="20" viewBox="0 0 19 20" fill="none" xmlns="http://www.w3.org/2000/svg">
<circle cx="9.39394" cy="9.92812" r="9.08144" fill="#CA2D2C"/>
<mask id="mask0_783_2337" style="mask-type:alpha" maskUnits="userSpaceOnUse" x="3" y="3" width="12" height="12">
<path fill-rule="evenodd" clip-rule="evenodd" d="M8.66406 9.2033V7.97846L12.3386 4.30392L13.5634 5.52877L9.88891 9.2033H8.66406Z" fill="white"/>
<path fill-rule="evenodd" clip-rule="evenodd" d="M11.9899 3.95749C12.1812 3.76616 12.4914 3.76616 12.6828 3.95749L13.9076 5.18234C14.099 5.37367 14.099 5.68388 13.9076 5.87522L10.2331 9.54975C10.1412 9.64163 10.0166 9.69325 9.88666 9.69325H8.66181C8.39123 9.69325 8.17188 9.47389 8.17188 9.20331V7.97846C8.17188 7.84852 8.22349 7.72391 8.31537 7.63203L11.9899 3.95749ZM9.15175 8.1814V8.71337H9.68372L12.8683 5.52878L12.3363 4.99681L9.15175 8.1814Z" fill="white"/>
<path fill-rule="evenodd" clip-rule="evenodd" d="M3.77569 9.21563C4.09727 8.89404 4.53343 8.71338 4.98822 8.71338H6.703C6.97359 8.71338 7.19294 8.93273 7.19294 9.20332C7.19294 9.4739 6.97359 9.69325 6.703 9.69325H4.98822C4.79331 9.69325 4.60638 9.77068 4.46856 9.9085C4.33074 10.0463 4.25331 10.2333 4.25331 10.4282C4.25331 10.6231 4.33074 10.81 4.46856 10.9478C4.60638 11.0856 4.79331 11.1631 4.98822 11.1631H12.3373C12.7921 11.1631 13.2282 11.3437 13.5498 11.6653C13.8714 11.9869 14.0521 12.4231 14.0521 12.8778C14.0521 13.3326 13.8714 13.7688 13.5498 14.0904C13.2282 14.412 12.7921 14.5926 12.3373 14.5926H7.19294C6.92235 14.5926 6.703 14.3733 6.703 14.1027C6.703 13.8321 6.92235 13.6128 7.19294 13.6128H12.3373C12.5322 13.6128 12.7191 13.5353 12.8569 13.3975C12.9948 13.2597 13.0722 13.0728 13.0722 12.8778C13.0722 12.6829 12.9948 12.496 12.8569 12.3582C12.7191 12.2204 12.5322 12.1429 12.3373 12.1429H4.98822C4.53343 12.1429 4.09727 11.9623 3.77569 11.6407C3.4541 11.3191 3.27344 10.8829 3.27344 10.4282C3.27344 9.97337 3.4541 9.53721 3.77569 9.21563Z" fill="white"/>
</mask>
<g mask="url(#mask0_783_2337)">
<path d="M2.78125 3.32407H14.5398V15.0826H2.78125V3.32407Z" fill="white"/>
</g>
</svg>
