<?xml version="1.0" standalone="no"?>
<!DOCTYPE svg PUBLIC "-//W3C//DTD SVG 1.1//EN" "http://www.w3.org/Graphics/SVG/1.1/DTD/svg11.dtd" >
<svg xmlns="http://www.w3.org/2000/svg">
<metadata>Generated by IcoMoon</metadata>
<defs>
<font id="icomoon" horiz-adv-x="1024">
<font-face units-per-em="1024" ascent="960" descent="-64" />
<missing-glyph horiz-adv-x="1024" />
<glyph unicode="&#x20;" horiz-adv-x="512" d="" />
<glyph unicode="&#x67;" d="M995.726 433.999c0-270.311-219.131-489.442-489.442-489.442s-489.442 219.131-489.442 489.442c0 270.311 219.131 489.442 489.442 489.442s489.442-219.131 489.442-489.442z" />
<glyph unicode="&#x68;" d="M588.978 345.681c28.483 0 51.599-23.115 51.599-51.593l-0.032-28.365c3.449-64.571-44.549-97.21-130.674-97.21-85.799 0-134.654 32.137-134.654 96.089v29.486c0 28.478 23.115 51.593 51.597 51.593h162.164zM264.65 493.103h129.023c-5.144-20.019-4.946-41.038 0.574-60.958 5.52-19.921 16.17-38.041 30.886-52.554l4.776-4.452-3.096 0.027c-17.696 0.005-34.908-5.778-49.009-16.465-14.102-10.693-24.32-25.702-29.095-42.739l-1.002-0.032c-85.799 0-134.655 32.137-134.655 96.089v29.486c0 28.482 23.116 51.597 51.598 51.597zM751.142 493.103c28.478 0 51.593-23.115 51.593-51.597l-0.027-28.365c3.449-64.571-44.549-97.21-130.673-97.21l-4.985 0.059c-4.533 16.061-13.899 30.337-26.829 40.885-12.929 10.553-28.791 16.864-45.433 18.087l-5.81 0.205-3.099-0.027c16.368 14.374 28.424 33.011 34.821 53.834s6.888 43.014 1.417 64.1l129.024 0.029zM507.895 552.072c11.615 0 23.118-2.288 33.849-6.733s20.48-10.961 28.699-19.174c8.214-8.214 14.724-17.965 19.17-28.696s6.737-22.234 6.737-33.85c0-11.615-2.291-23.118-6.737-33.849-4.446-10.733-10.957-20.483-19.17-28.696-8.219-8.214-17.969-14.729-28.699-19.176-10.732-4.441-22.234-6.731-33.849-6.731-23.459 0-45.958 9.318-62.546 25.907s-25.907 39.087-25.907 62.545c0 23.459 9.319 45.958 25.907 62.546s39.087 25.907 62.546 25.907zM345.732 699.493c23.459 0 45.957-9.319 62.545-25.907s25.907-39.086 25.907-62.545c0-23.459-9.319-45.958-25.907-62.545s-39.087-25.907-62.545-25.907c-23.459 0-45.958 9.319-62.546 25.907s-25.907 39.086-25.907 62.545c0 23.459 9.319 45.957 25.907 62.545s39.087 25.907 62.546 25.907zM670.057 699.493c23.46 0 45.961-9.319 62.545-25.907 16.589-16.588 25.907-39.086 25.907-62.545s-9.318-45.958-25.907-62.545c-16.583-16.588-39.084-25.907-62.545-25.907-23.455 0-45.956 9.319-62.545 25.907s-25.907 39.086-25.907 62.545c0 23.459 9.318 45.957 25.907 62.545s39.090 25.907 62.545 25.907z" />
<glyph unicode="&#xe903;" glyph-name="about-shadiPk" horiz-adv-x="829" d="M429.598-63.785l-306.049 360.94c-4.253 5.417-8.461 10.874-12.625 16.36-52.279 68.866-80.521 152.981-80.394 239.441 0 105.84 42.045 207.344 116.884 282.184s176.344 116.885 282.184 116.885c105.842 0 207.344-42.045 282.184-116.885s116.882-176.344 116.882-282.184c0.127-86.421-28.101-170.496-80.355-239.334l-0.039-0.107c0 0-10.884-14.292-12.517-16.218l-306.156-361.082zM168.825 357.23c0.073 0 8.489-11.171 10.412-13.566l250.361-295.278 250.689 295.678c1.595 1.994 10.084 13.239 10.118 13.278 42.706 56.261 65.79 124.978 65.702 195.614 0 86.596-34.397 169.645-95.632 230.878-61.23 61.232-144.282 95.632-230.877 95.632s-169.645-34.4-230.877-95.632c-61.233-61.233-95.633-144.282-95.633-230.878-0.076-70.68 23.029-139.435 65.773-195.726h-0.036zM610.992 371.566h-72.558v290.234h-217.672v-290.234h-72.558v290.234c0.019 19.238 7.67 37.682 21.273 51.285s32.047 21.253 51.285 21.273h217.672c19.237-0.020 37.683-7.67 51.288-21.273 13.6-13.603 21.25-32.047 21.27-51.285v-290.234zM393.318 444.123h72.558v-72.558h-72.558v72.558zM393.318 589.238h72.558v-72.558h-72.558v72.558z" />
<glyph unicode="&#xe904;" d="M995.726 444.285c0-270.311-219.131-489.442-489.442-489.442s-489.442 219.131-489.442 489.442c0 270.311 219.131 489.442 489.442 489.442s489.442-219.131 489.442-489.442z" />
<glyph unicode="&#xe905;" d="M590.465 331.14c28.979 0 52.493-23.52 52.493-52.493l-0.027-28.861c3.509-65.692-45.325-98.897-132.95-98.897-87.292 0-136.997 32.693-136.997 97.76v29.998c0 28.974 23.518 52.493 52.495 52.493h164.985zM260.495 481.126h131.268c-5.234-20.368-5.033-41.752 0.584-62.019 5.617-20.264 16.452-38.702 31.423-53.469l4.86-4.533-3.15 0.032c-18.004 0.005-35.515-5.875-49.862-16.75s-24.743-26.15-29.601-43.482l-1.020-0.032c-87.292 0-136.997 32.698-136.997 97.76v29.999c0 28.978 23.518 52.495 52.495 52.495zM755.448 481.126c28.979 0 52.499-23.518 52.499-52.495l-0.032-28.856c3.509-65.692-45.325-98.902-132.948-98.902l-5.071 0.059c-4.608 16.341-14.142 30.866-27.292 41.596-13.156 10.736-29.297 17.16-46.231 18.4l-5.907 0.21-3.153-0.032c16.653 14.627 28.92 33.593 35.425 54.773 6.51 21.188 7.012 43.765 1.444 65.218l131.266 0.030zM507.972 541.121c11.818 0 23.52-2.328 34.44-6.85 10.914-4.522 20.836-11.151 29.195-19.508 8.354-8.356 14.983-18.277 19.505-29.195s6.85-22.621 6.85-34.439c0-11.817-2.328-23.52-6.85-34.437-4.522-10.919-11.151-20.841-19.505-29.195-8.359-8.359-18.281-14.988-29.195-19.51-10.92-4.522-22.622-6.85-34.44-6.85-23.867 0-46.757 9.48-63.634 26.36-16.877 16.874-26.358 39.764-26.358 63.631s9.481 46.757 26.358 63.634c16.877 16.877 39.766 26.358 63.634 26.358zM342.988 691.107c23.867 0 46.757-9.481 63.634-26.358s26.358-39.767 26.358-63.634c0-23.867-9.481-46.757-26.358-63.634s-39.766-26.358-63.634-26.358c-23.867 0-46.757 9.481-63.634 26.358s-26.358 39.766-26.358 63.634c0 23.867 9.481 46.757 26.358 63.634s39.767 26.358 63.634 26.358zM672.957 691.107c23.87 0 46.759-9.481 63.634-26.358 16.88-16.877 26.36-39.767 26.36-63.634s-9.48-46.757-26.36-63.634c-16.874-16.877-39.764-26.358-63.634-26.358-23.865 0-46.754 9.481-63.634 26.358-16.874 16.877-26.36 39.766-26.36 63.634s9.485 46.757 26.36 63.634c16.88 16.877 39.769 26.358 63.634 26.358z" />
<glyph unicode="&#xe906;" d="M786.96 564.324l-234.674-0.896c21.358 28.66 30.079 135.34 121.198 132.994 84.766-2.183 92.128-93.753 113.475-132.098z" />
<glyph unicode="&#xe907;" d="M457.696 564.324l-234.671-0.896c21.357 28.66 30.074 135.34 121.198 132.994 84.765-2.183 92.124-93.753 113.473-132.098z" />
<glyph unicode="&#xe908;" d="M655.047 402.648h-43.703l-13.447-10.084v120.199l24.371-17.655 32.779-92.461z" />
<glyph unicode="&#xe909;" d="M360.53 402.648h43.702l13.452-10.084v120.199l-24.376-17.655-32.778-92.461z" />
<glyph unicode="&#xe90a;" d="M623.589 421.88l-234.668-0.898c21.357 28.662 30.074 135.343 121.198 132.996 84.766-2.183 92.123-93.753 113.471-132.098z" />
<glyph unicode="&#xe90b;" horiz-adv-x="4279" d="M22 446.643c0 235.279 190.73 426.009 426.007 426.009h3387.019v-852.014h-3387.019c-235.278 0-426.007 190.731-426.007 426.006v0z" />
<glyph unicode="&#xe90c;" horiz-adv-x="4279" d="M4254.358 447.982c0-269.259-218.278-487.537-487.537-487.537s-487.537 218.278-487.537 487.537c0 269.259 218.278 487.537 487.537 487.537s487.537-218.278 487.537-487.537z" />
<glyph unicode="&#xe90d;" horiz-adv-x="4279" d="M3710.501 375.344l-87.768 87.779c-7.402 7.398-16.483 11.099-27.242 11.099-10.763 0-20.18-4.037-28.251-12.109-7.398-7.398-11.099-16.816-11.099-28.251s3.701-20.853 11.099-28.251l115.028-115.021c7.387-7.398 16.823-11.099 28.233-11.099 11.447 0 20.846 3.701 28.27 11.099l229.010 229.036c7.424 7.398 11.118 16.479 11.118 27.238 0 10.763-4.023 20.18-12.105 28.251-7.387 7.402-16.823 11.099-28.27 11.099-11.41 0-20.846-3.697-28.233-11.099l-199.79-199.771zM3767.003 44.401c-55.808 0-108.288 10.602-157.389 31.803-49.101 21.175-91.816 49.924-128.139 86.246s-65.072 79.035-86.246 128.139c-21.2 49.104-31.799 101.57-31.799 157.396 0 55.83 10.598 108.295 31.799 157.4 21.175 49.103 49.924 91.815 86.246 128.138s79.038 65.085 128.139 86.286c49.101 21.175 101.581 31.762 157.389 31.762 55.845 0 108.288-10.587 157.403-31.762 49.115-21.202 91.831-49.964 128.146-86.286s65.061-79.035 86.235-128.138c21.211-49.104 31.817-101.57 31.817-157.4 0-55.826-10.606-108.292-31.817-157.396-21.175-49.104-49.92-91.816-86.235-128.139s-79.031-65.072-128.146-86.246c-49.115-21.2-101.559-31.803-157.403-31.803z" />
<glyph unicode="&#xe90e;" horiz-adv-x="4279" d="M3707.502 371.551l-92.372 92.365c-7.786 7.786-17.339 11.677-28.665 11.677-11.323 0-21.233-4.246-29.725-12.738-7.786-7.786-11.677-17.697-11.677-29.729s3.891-21.939 11.677-29.725l121.029-121.029c7.79-7.786 17.701-11.677 29.733-11.677s21.943 3.891 29.733 11.677l240.969 240.995c7.79 7.786 11.703 17.342 11.703 28.665 0 11.326-4.242 21.233-12.763 29.729-7.79 7.786-17.701 11.677-29.733 11.677s-21.906-3.891-29.696-11.677l-210.213-210.209zM3766.93 23.329c-58.734 0-113.935 11.154-165.603 33.463-51.664 22.283-96.607 52.531-134.828 90.752-38.221 38.217-68.469 83.163-90.752 134.828-22.309 51.668-33.463 106.873-33.463 165.617s11.154 113.953 33.463 165.62c22.283 51.667 52.531 96.61 90.752 134.83s83.163 68.484 134.828 90.793c51.668 22.281 106.869 33.421 165.603 33.421 58.77 0 113.957-11.14 165.632-33.421 51.675-22.309 96.622-52.573 134.839-90.793s68.462-83.163 90.734-134.83c22.309-51.667 33.463-106.875 33.463-165.62s-11.154-113.949-33.463-165.617c-22.272-51.664-52.517-96.611-90.734-134.828-38.217-38.221-83.163-68.469-134.839-90.752-51.675-22.309-106.862-33.463-165.632-33.463z" />
<glyph unicode="&#xe90f;" horiz-adv-x="4279" d="M630.766 282.734h38.51l39.461 87.954h181.138l38.985-87.954h40.411l-151.662 335.176h-35.182l-151.662-335.176zM723.474 404.443l76.069 169.728 75.593-169.728h-151.662zM1121.386 277.029c46.117 0 75.593 19.493 100.315 47.543l-23.296 21.87c-19.493-20.919-43.264-36.608-75.118-36.608-51.346 0-90.331 42.313-90.331 95.561v0.951c0 53.248 38.034 95.086 87.954 95.086 33.755 0 55.15-16.64 74.642-37.083l24.247 25.673c-23.296 24.722-51.822 43.739-98.414 43.739-72.265 0-125.989-58.478-125.989-128.366v-0.951c0-68.937 53.723-127.415 125.989-127.415zM1379.997 277.029c46.117 0 75.593 19.493 100.315 47.543l-23.296 21.87c-19.493-20.919-43.264-36.608-75.118-36.608-51.346 0-90.331 42.313-90.331 95.561v0.951c0 53.248 38.034 95.086 87.954 95.086 33.755 0 55.15-16.64 74.642-37.083l24.247 25.673c-23.296 24.722-51.822 43.739-98.414 43.739-72.265 0-125.989-58.478-125.989-128.366v-0.951c0-68.937 53.723-127.415 125.989-127.415zM1635.277 277.029c47.067 0 76.544 18.066 101.266 46.117l-22.821 20.443c-20.443-20.919-43.264-34.706-77.495-34.706-43.739 0-81.298 29.952-86.528 83.2h194.926c0.475 4.279 0.475 6.656 0.475 11.886 0 71.79-41.838 129.792-114.578 129.792-68.462 0-117.906-57.051-117.906-127.89v-0.951c0-76.069 55.625-127.89 122.661-127.89zM1549.7 419.182c5.23 47.543 36.608 83.675 79.872 83.675 49.445 0 74.642-39.461 78.446-83.675h-158.318zM1803.151 206.665h36.608v123.136c19.017-28.050 48.494-52.297 94.135-52.297 59.429 0 117.431 48.018 117.431 127.89v0.951c0 80.823-58.478 127.415-117.431 127.415-45.641 0-73.691-25.673-94.135-54.674v49.445h-36.608v-321.865zM1927.237 310.309c-45.641 0-88.905 38.034-88.905 95.086v0.951c0 55.625 43.264 94.61 88.905 94.61 47.067 0 86.528-36.608 86.528-95.086v-0.951c0-59.429-38.985-94.61-86.528-94.61zM2195.083 278.455c17.591 0 31.378 3.328 44.215 10.459v31.378c-12.837-6.181-22.821-8.558-35.657-8.558-24.722 0-41.362 10.459-41.362 40.887v143.579h77.97v32.329h-77.97v74.165h-36.608v-74.165h-34.231v-32.329h34.231v-148.334c0-49.92 29.477-69.413 69.413-69.413zM2399.495 277.029c47.067 0 76.544 18.066 101.266 46.117l-22.821 20.443c-20.443-20.919-43.264-34.706-77.495-34.706-43.739 0-81.298 29.952-86.528 83.2h194.926c0.475 4.279 0.475 6.656 0.475 11.886 0 71.79-41.838 129.792-114.578 129.792-68.462 0-117.906-57.051-117.906-127.89v-0.951c0-76.069 55.625-127.89 122.661-127.89zM2313.918 419.182c5.23 47.543 36.608 83.675 79.872 83.675 49.445 0 74.642-39.461 78.446-83.675h-158.318zM2670.537 277.504c45.641 0 73.691 25.198 94.135 54.674v-49.445h36.608v347.061h-36.608v-148.332c-19.017 28.050-48.494 52.297-94.135 52.297-58.953 0-117.431-48.018-117.431-127.89v-0.951c0-80.823 58.478-127.415 117.431-127.415zM2677.193 310.309c-47.067 0-86.528 36.608-86.528 95.086v0.951c0 59.429 38.985 94.61 86.528 94.61 45.641 0 88.905-38.034 88.905-94.61v-0.951c0-56.576-43.264-95.086-88.905-95.086z" />
<glyph unicode="&#xe910;" d="M1003.2 476.7c0-266.385-215.948-482.333-482.333-482.333s-482.333 215.948-482.333 482.333c0 266.385 215.948 482.333 482.333 482.333s482.333-215.948 482.333-482.333z" />
<glyph unicode="&#xe911;" d="M739.594 635.297c10.397-9.070 16.773-21.899 17.715-35.667s-3.625-27.345-12.691-37.748l-230.216-263.991c-5.831-6.688-13.085-11.987-21.229-15.508s-16.974-5.173-25.841-4.841c-8.866 0.334-17.546 2.647-25.403 6.771s-14.691 9.953-20.002 17.061l-103.494 138.438c-8.263 11.056-11.795 24.942-9.819 38.602s9.297 25.977 20.352 34.24c11.056 8.262 24.942 11.794 38.602 9.819s25.977-9.297 34.239-20.352l70.425-94.222 193.932 222.376c4.491 5.151 9.954 9.368 16.075 12.408s12.784 4.845 19.597 5.311c6.82 0.466 13.667-0.415 20.145-2.593s12.459-5.612 17.613-10.104z" />
<glyph unicode="&#xe912;" glyph-name="accept-tick-mark" horiz-adv-x="1252" d="M425.951 23.142l-396.295 394.183c-2.286 2.273-4.099 4.976-5.337 7.951s-1.875 6.168-1.875 9.391c0 3.222 0.637 6.414 1.875 9.39s3.051 5.679 5.337 7.951l100.046 100.157c9.561 9.561 25.012 9.561 34.573 0l260.898-259.343c9.561-9.56 25.123-9.448 34.683 0.112l576.49 582.048c9.56 9.671 25.122 9.671 34.793 0.111l100.157-100.158c9.557-9.56 9.557-25.012 0.114-34.571l-710.777-717.111c-9.56-9.56-25.123-9.56-34.683-0.112z" />
<glyph unicode="&#xe913;" d="M147.369-18.173c-29.642 0-55.027 10.563-76.153 31.69s-31.672 46.495-31.636 76.099v754.528c0 29.642 10.563 55.027 31.69 76.153s46.493 31.672 76.099 31.636h754.527c29.642 0 55.027-10.563 76.153-31.69s31.669-46.493 31.636-76.099v-754.528c0-29.642-10.563-55.027-31.69-76.153s-46.495-31.669-76.099-31.636h-754.527z" />
<glyph unicode="&#xe914;" d="M255.368 523.526h538.318v-112.132h-538.318v112.132z" />
<glyph unicode="&#xe915;" glyph-name="accordion-plus" d="M470.737 192.862h107.791v215.579h215.579v107.789h-215.579v215.579h-107.791v-215.579h-215.579v-107.789h215.579v-215.579zM147.369-22.717c-29.642 0-55.027 10.563-76.153 31.69s-31.672 46.495-31.636 76.099v754.526c0 29.642 10.563 55.027 31.69 76.153s46.493 31.672 76.099 31.636h754.527c29.642 0 55.027-10.563 76.153-31.69s31.669-46.493 31.636-76.099v-754.526c0-29.642-10.563-55.027-31.69-76.153s-46.495-31.674-76.099-31.636h-754.527z" />
<glyph unicode="&#xe916;" glyph-name="account-setting" horiz-adv-x="896" d="M437.858 612.926c-31.915 0-63.112-9.463-89.647-27.194s-47.216-42.93-59.429-72.414c-12.212-29.483-15.408-61.926-9.182-93.227s21.594-60.053 44.16-82.62c22.566-22.562 51.317-37.931 82.617-44.156 31.302-6.229 63.741-3.034 93.228 9.182 29.483 12.211 54.682 32.892 72.414 59.426 17.728 26.534 27.191 57.732 27.191 89.647 0 42.795-16.998 83.834-47.258 114.095s-71.305 47.26-114.095 47.26zM437.858 370.893c-15.959 0-31.557 4.732-44.824 13.598-13.268 8.862-23.608 21.461-29.714 36.207-6.106 14.741-7.704 30.963-4.591 46.613s10.797 30.025 22.080 41.306c11.283 11.285 25.658 18.97 41.309 22.080 15.652 3.114 31.869 1.515 46.615-4.591 14.741-6.106 27.341-16.448 36.207-29.713 8.862-13.269 13.594-28.864 13.594-44.821 0-21.397-8.499-41.92-23.629-57.050s-35.652-23.629-57.045-23.629zM599.211 451.571v0zM437.858 1523.149c-211.941 0-419.119-62.848-595.339-180.594l1011.386-1513.644c-123.153-82.287-267.938-126.208-416.047-126.208v1820.446zM-157.481 1342.554c-176.219-117.746-313.568-285.103-394.673-480.909l1681.873-696.653c-56.683-136.841-152.666-253.794-275.814-336.081l-1011.386 1513.644zM-552.154 861.645c-81.105-195.805-102.327-411.264-60.979-619.128l1785.468 355.149c28.894-145.268 14.063-295.838-42.615-432.675l-1681.873 696.653zM-613.133 242.517c41.348-207.868 143.407-398.805 293.268-548.668l1287.25 1287.249c104.73-104.731 176.051-238.166 204.949-383.432l-1785.468-355.149zM-319.864-306.15c149.863-149.862 340.8-251.921 548.666-293.269l355.151 1785.466c145.267-28.895 278.699-100.218 383.433-204.948l-1287.25-1287.249zM228.802-599.42c207.866-41.344 423.324-20.126 619.13 60.979l-696.655 1681.873c136.838 56.68 287.409 71.51 432.676 42.615l-355.151-1785.466zM847.932-538.441c195.806 81.105 363.162 218.453 480.909 394.675l-1513.644 1011.383c82.286 123.15 199.243 219.134 336.081 275.814l696.655-1681.873zM1328.841-143.765c117.747 176.218 180.595 383.398 180.595 595.337h-1820.446c0 148.111 43.92 292.896 126.207 416.047l1513.644-1011.383zM1509.436 451.571c0 284.198-112.9 556.759-313.86 757.719l-1287.248-1287.251c-140.44 140.442-219.338 330.918-219.338 529.532h1820.446zM1195.575 1209.29c-200.96 200.958-473.519 313.859-757.717 313.859v-1820.446c-198.614 0-389.091 78.899-529.53 219.337l1287.248 1287.251zM437.858 1281.114c164.066 0 324.45-48.652 460.868-139.803l-1011.385-1513.646c162.953-108.881 354.533-166.997 550.517-166.997v1820.446zM898.726 1141.311c136.418-91.151 242.743-220.708 305.527-372.288l-1681.869-696.656c74.997-181.060 202.004-335.821 364.956-444.702l1011.385 1513.646zM1204.254 769.023c62.788-151.579 79.215-318.373 47.206-479.29l-1785.463 355.153c-38.234-192.217-18.611-391.453 56.388-572.518l1681.869 696.656zM1251.46 289.732c-32.009-160.917-111.014-308.727-227.029-424.738l-1287.247 1287.248c-138.579-138.579-232.953-315.14-271.187-507.357l1785.463-355.153zM1024.431-135.006c-116.011-116.015-263.821-195.021-424.738-227.029l-355.152 1785.463c-192.217-38.232-368.778-132.607-507.357-271.186l1287.247-1287.248zM599.693-362.035c-160.917-32.009-327.71-15.582-479.29 47.206l696.655 1681.871c-181.065 74.997-380.301 94.624-572.517 56.386l355.152-1785.463zM120.403-314.829c-151.58 62.784-281.137 169.109-372.288 305.527l1513.645 1011.386c-108.881 162.952-263.637 289.959-444.702 364.958l-696.655-1681.871zM-251.885-9.301c-91.151 136.418-139.803 296.802-139.803 460.873h1820.445c0 195.98-58.116 387.561-166.997 550.513l-1513.645-1011.386zM-391.688 451.571c0 220.008 87.398 431.006 242.968 586.575l1287.25-1287.247c185.826 185.826 290.227 437.867 290.227 700.672h-1820.445zM-148.72 1038.146c155.569 155.569 366.567 242.968 586.578 242.968v-1820.446c262.801 0 514.842 104.401 700.672 290.231l-1287.25 1287.247zM812.77 374.925l-17.911 10.33c8.064 43.87 8.064 88.845 0 132.715l17.911 10.325c13.773 7.947 25.847 18.528 35.533 31.14 9.681 12.612 16.789 27.008 20.907 42.366 4.122 15.358 5.175 31.377 3.106 47.142s-7.228 30.969-15.172 44.742c-7.945 13.773-18.526 25.846-31.138 35.53s-27.008 16.789-42.368 20.909c-15.356 4.121-31.377 5.176-47.142 3.105s-30.967-7.226-44.74-15.172l-17.95-10.367c-33.907 28.966-72.866 51.422-114.927 66.237v20.694c0 32.096-12.749 62.877-35.447 85.572-22.694 22.695-53.474 35.445-85.572 35.445-32.093 0-62.875-12.75-85.57-35.445s-35.445-53.476-35.445-85.572v-20.694c-42.058-14.868-81.007-37.378-114.885-66.398l-18.032 10.448c-27.816 16.048-60.868 20.388-91.885 12.067s-57.457-28.623-73.505-56.439c-16.048-27.817-20.388-60.868-12.067-91.885s28.624-57.457 56.44-73.506l17.91-10.325c-8.063-43.87-8.063-88.845 0-132.715l-17.91-10.33c-27.816-16.047-48.118-42.487-56.44-73.502-8.322-31.019-3.981-64.068 12.067-91.887 16.048-27.814 42.488-48.119 73.505-56.439s64.069-3.981 91.885 12.066l17.951 10.368c33.915-28.971 72.892-51.426 114.966-66.236v-20.693c0-32.098 12.75-62.878 35.445-85.572s53.476-35.447 85.57-35.447c32.098 0 62.878 12.753 85.572 35.447 22.699 22.694 35.447 53.474 35.447 85.572v20.693c42.057 14.865 81.007 37.376 114.884 66.398l18.031-10.406c27.819-16.051 60.868-20.39 91.887-12.070 31.014 8.324 57.455 28.625 73.506 56.444 16.047 27.814 20.386 60.868 12.066 91.883-8.324 31.019-28.625 57.459-56.439 73.506l-0.043-0.043zM709.986 527.245c13.662-49.498 13.662-101.773 0-151.27-2.385-8.614-1.839-17.779 1.549-26.052s9.425-15.185 17.169-19.652l43.729-25.25c9.267-5.35 16.034-14.161 18.807-24.499s1.323-21.355-4.023-30.626c-5.35-9.267-14.161-16.034-24.499-18.807s-21.355-1.327-30.626 4.023l-43.806 25.335c-7.753 4.489-16.772 6.268-25.647 5.065-8.875-1.207-17.097-5.329-23.364-11.721-35.908-36.655-81.139-62.81-130.82-75.639-8.674-2.227-16.354-7.279-21.841-14.357-5.483-7.074-8.461-15.774-8.457-24.73v-50.543c0-10.701-4.25-20.962-11.814-28.527s-17.826-11.814-28.523-11.814c-10.697 0-20.959 4.25-28.524 11.814s-11.815 17.826-11.815 28.527v50.505c0.004 8.951-2.97 17.651-8.455 24.73s-13.168 12.13-21.84 14.357c-49.684 12.881-94.904 39.091-130.779 75.797-6.272 6.391-14.493 10.517-23.366 11.721-8.874 1.207-17.896-0.576-25.646-5.065l-43.727-25.293c-4.59-2.692-9.666-4.446-14.937-5.167s-10.632-0.393-15.775 0.969c-5.143 1.361-9.967 3.721-14.193 6.955-4.226 3.23-7.771 7.266-10.431 11.874s-4.382 9.694-5.068 14.972c-0.686 5.274-0.321 10.633 1.073 15.765 1.394 5.137 3.789 9.941 7.049 14.148 3.259 4.203 7.318 7.723 11.943 10.351l43.728 25.254c7.743 4.467 13.783 11.379 17.17 19.652s3.932 17.434 1.547 26.048c-13.661 49.502-13.661 101.773 0 151.275 2.342 8.596 1.772 17.726-1.621 25.965s-9.419 15.122-17.137 19.576l-43.727 25.252c-9.27 5.35-16.036 14.162-18.809 24.5s-1.325 21.353 4.024 30.623c5.35 9.271 14.162 16.036 24.5 18.809s21.353 1.325 30.624-4.024l43.808-25.333c7.728-4.498 16.732-6.301 25.596-5.126s17.087 5.263 23.375 11.621c35.905 36.654 81.139 62.807 130.819 75.636 8.698 2.236 16.402 7.311 21.89 14.421s8.445 15.848 8.405 24.829v50.505c0 10.699 4.25 20.959 11.815 28.524s17.825 11.815 28.522 11.815c10.701 0 20.962-4.25 28.527-11.815s11.814-17.825 11.814-28.524v-50.505c-0.004-8.953 2.97-17.654 8.457-24.731 5.483-7.077 13.167-12.128 21.837-14.357 49.698-12.874 94.933-39.084 130.82-75.797 6.272-6.393 14.494-10.516 23.364-11.721 8.875-1.205 17.899 0.577 25.647 5.065l43.729 25.292c4.587 2.691 9.664 4.447 14.938 5.167 5.269 0.721 10.628 0.392 15.774-0.968 5.141-1.36 9.967-3.724 14.191-6.955 4.228-3.232 7.774-7.267 10.432-11.874 2.662-4.607 4.382-9.695 5.069-14.971s0.32-10.634-1.075-15.768c-1.391-5.134-3.789-9.942-7.049-14.146s-7.317-7.723-11.942-10.352l-43.725-25.252c-7.706-4.465-13.713-11.354-17.092-19.592s-3.934-17.362-1.587-25.95v0.038z" />
<glyph unicode="&#xe917;" glyph-name="account-setting-inactive" horiz-adv-x="979" d="M488.982 615.723c-33.302 0-65.856-9.875-93.544-28.376s-49.269-44.797-62.013-75.561c-12.743-30.769-16.078-64.623-9.581-97.28 6.497-32.661 22.532-62.664 46.080-86.212s53.548-39.584 86.211-46.080c32.661-6.496 66.511-3.161 97.28 9.581 30.765 12.747 57.059 34.326 75.562 62.014 18.499 27.688 28.374 60.242 28.374 93.54 0 44.655-17.737 87.483-49.312 119.058s-74.405 49.315-119.056 49.315zM488.982 363.168c-16.651 0-32.928 4.933-46.773 14.185s-24.634 22.399-31.006 37.781c-6.372 15.382-8.039 32.309-4.791 48.64s11.266 31.334 23.040 43.106c11.774 11.774 26.776 19.792 43.106 23.040s33.258 1.581 48.64-4.791c15.382-6.372 28.53-17.163 37.781-31.004 9.247-13.846 14.185-30.123 14.185-46.775 0-22.328-8.869-43.738-24.656-59.526s-37.202-24.656-59.526-24.656zM657.35 447.35v0zM488.982 1565.522c-221.155 0-437.341-65.581-621.223-188.448l1055.359-1579.453c-128.508-85.865-279.588-131.695-434.136-131.695v1899.596zM-132.241 1377.075c-183.881-122.865-327.201-297.499-411.833-501.818l1754.998-726.941c-59.147-142.79-159.303-264.833-287.806-350.693l-1055.359 1579.453zM-544.073 875.256c-84.631-204.319-106.776-429.144-63.63-646.050l1863.097 370.594c30.15-151.582 14.674-308.699-44.468-451.485l-1754.998 726.941zM-607.704 229.207c43.146-216.901 149.642-416.14 306.020-572.518l1343.217 1343.215c109.283-109.284 183.706-248.521 213.86-400.103l-1863.097-370.594zM-301.684-343.312c156.379-156.378 355.617-262.874 572.521-306.020l370.593 1863.095c151.583-30.151 290.816-104.575 400.104-213.86l-1343.217-1343.215zM270.836-649.332c216.904-43.146 441.73-21.001 646.049 63.63l-726.943 1754.996c142.787 59.144 299.904 74.619 451.487 44.468l-370.593-1863.095zM916.885-585.701c204.319 84.631 378.951 227.951 501.818 411.831l-1579.455 1055.359c85.864 128.504 207.905 228.662 350.693 287.806l726.943-1754.996zM1418.703-173.871c122.867 183.884 188.447 400.068 188.447 621.221h-1899.596c0 154.553 45.83 305.634 131.694 434.139l1579.455-1055.359zM1607.15 447.35c0 296.558-117.809 580.969-327.506 790.666l-1343.215-1343.217c-146.546 146.548-228.874 345.306-228.874 552.55h1899.596zM1279.644 1238.016c-209.697 209.697-494.107 327.506-790.662 327.506v-1899.596c-207.249 0-406.008 82.33-552.554 228.873l1343.215 1343.217zM488.982 1312.963c171.199 0 338.557-50.767 480.906-145.882l-1055.358-1579.455c170.037-113.615 369.947-174.258 574.452-174.258v1899.595zM969.888 1167.081c142.349-95.114 253.298-230.304 318.811-388.474l-1754.994-726.944c78.259-188.937 210.787-350.422 380.824-464.037l1055.358 1579.455zM1288.7 778.607c65.518-158.17 82.659-332.214 49.259-500.128l-1863.092 370.593c-39.896-200.573-19.42-408.472 58.84-597.409l1754.994 726.944zM1337.958 278.479c-33.4-167.914-115.841-322.15-236.9-443.205l-1343.214 1343.214c-144.604-144.604-243.082-328.842-282.978-529.416l1863.092-370.593zM1101.058-164.726c-121.055-121.059-275.291-203.5-443.205-236.9l-370.593 1863.092c-200.574-39.896-384.812-138.374-529.416-282.978l1343.214-1343.214zM657.853-401.626c-167.914-33.4-341.959-16.259-500.128 49.259l726.944 1754.995c-188.937 78.259-396.836 98.735-597.409 58.839l370.593-1863.092zM157.725-352.367c-158.17 65.514-293.36 176.462-388.474 318.811l1579.455 1055.358c-113.615 170.037-275.1 302.566-464.037 380.826l-726.944-1754.995zM-230.749-33.556c-95.114 142.349-145.882 309.707-145.882 480.906h1899.595c0 204.505-60.643 404.415-174.258 574.452l-1579.455-1055.358zM-376.631 447.35c0 229.577 91.198 449.748 253.532 612.081l1343.218-1343.217c193.906 193.91 302.846 456.909 302.846 731.136h-1899.595zM-123.099 1059.431c162.333 162.333 382.505 253.532 612.082 253.532v-1899.595c274.227 0 537.226 108.94 731.136 302.846l-1343.218 1343.217zM880.195 367.376l-18.69 10.774c8.415 45.782 8.415 92.708 0 138.487l18.69 10.776c14.372 8.291 26.971 19.333 37.078 32.493 10.102 13.161 17.519 28.182 21.816 44.208 4.301 16.026 5.4 32.741 3.241 49.192s-7.542 32.316-15.832 46.688c-8.29 14.372-19.331 26.97-32.492 37.075s-28.182 17.519-44.21 21.818c-16.023 4.299-32.741 5.4-49.192 3.24s-32.314-7.54-46.685-15.831l-18.73-10.818c-35.381 30.226-76.034 53.658-119.924 69.116v21.594c0 33.491-13.303 65.61-36.989 89.292-23.681 23.682-55.799 36.986-89.288 36.986-33.494 0-65.613-13.304-89.295-36.986s-36.986-55.801-36.986-89.292v-21.594c-43.887-15.514-84.529-39.003-119.881-69.285l-18.815 10.902c-29.026 16.746-63.515 21.275-95.88 12.592s-59.955-29.868-76.701-58.894c-16.746-29.026-21.275-63.515-12.592-95.88s29.868-59.955 58.894-76.701l18.689-10.776c-8.414-45.779-8.414-92.705 0-138.487l-18.689-10.774c-29.026-16.745-50.21-44.335-58.894-76.702-8.683-32.363-4.154-66.854 12.592-95.878 16.746-29.028 44.336-50.212 76.701-58.893 32.366-8.686 66.854-4.154 95.88 12.591l18.731 10.819c35.39-30.23 76.061-53.662 119.965-69.12v-21.593c0-33.489 13.304-65.607 36.986-89.293 23.682-23.681 55.801-36.984 89.295-36.984 33.489 0 65.607 13.303 89.288 36.984 23.686 23.686 36.989 55.804 36.989 89.293v21.593c43.885 15.516 84.529 39.005 119.879 69.289l18.815-10.863c29.028-16.745 63.515-21.272 95.882-12.591 32.363 8.682 59.953 29.87 76.702 58.893 16.745 29.028 21.272 63.515 12.591 95.882-8.686 32.363-29.87 59.953-58.893 76.698l-0.045-0.040zM772.942 526.318c14.256-51.65 14.256-106.198 0-157.847-2.489-8.989-1.919-18.552 1.616-27.185s9.835-15.845 17.916-20.507l45.63-26.352c9.67-5.579 16.731-14.777 19.625-25.564s1.385-22.279-4.198-31.953c-5.583-9.675-14.777-16.736-25.564-19.625-10.788-2.894-22.283-1.385-31.958 4.198l-45.71 26.433c-8.090 4.684-17.501 6.545-26.762 5.285-9.261-1.256-17.835-5.561-24.38-12.23-37.469-38.249-84.667-65.536-136.508-78.924-9.051-2.324-17.065-7.595-22.791-14.982-5.721-7.386-8.829-16.464-8.82-25.805v-52.745c0-11.162-4.439-21.869-12.333-29.763s-18.597-12.328-29.763-12.328c-11.162 0-21.869 4.434-29.763 12.328s-12.328 18.601-12.328 29.763v52.7c0.004 9.345-3.101 18.423-8.824 25.809-5.723 7.382-13.741 12.653-22.789 14.982-51.844 13.441-99.031 40.786-136.465 79.093-6.544 6.669-15.122 10.97-24.382 12.23-9.26 1.256-18.675-0.601-26.761-5.285l-45.629-26.392c-4.789-2.809-10.086-4.644-15.586-5.392-5.5-0.752-11.095-0.41-16.461 1.006-5.367 1.42-10.4 3.887-14.81 7.261-4.409 3.37-8.109 7.582-10.885 12.39-2.775 4.804-4.573 10.115-5.288 15.618-0.715 5.507-0.335 11.099 1.119 16.455s3.954 10.374 7.355 14.759c3.401 4.39 7.637 8.058 12.463 10.805l45.629 26.348c8.080 4.661 14.382 11.874 17.917 20.507s4.103 18.196 1.614 27.185c-14.255 51.65-14.255 106.198 0 157.849 2.444 8.971 1.849 18.498-1.692 27.095s-9.829 15.78-17.882 20.427l-45.629 26.35c-9.673 5.582-16.733 14.778-19.626 25.565s-1.383 22.282 4.199 31.955c5.582 9.673 14.778 16.733 25.565 19.626s22.281 1.383 31.955-4.199l45.713-26.434c8.064-4.694 17.459-6.575 26.709-5.348s17.83 5.492 24.392 12.125c37.466 38.248 84.667 65.538 136.507 78.924 9.077 2.333 17.115 7.629 22.841 15.048s8.815 16.536 8.77 25.908v52.7c0 11.163 4.434 21.87 12.328 29.764s18.601 12.329 29.767 12.329c11.162 0 21.869-4.435 29.763-12.329s12.328-18.601 12.328-29.764v-52.7c-0.004-9.343 3.099-18.422 8.824-25.807 5.721-7.384 13.739-12.655 22.786-14.982 51.859-13.434 99.061-40.783 136.508-79.092 6.545-6.67 15.124-10.973 24.38-12.231 9.261-1.258 18.677 0.602 26.762 5.285l45.63 26.392c4.786 2.808 10.084 4.64 15.587 5.392 5.498 0.752 11.090 0.409 16.46-1.010 5.365-1.419 10.4-3.885 14.808-7.257 4.412-3.372 8.112-7.583 10.886-12.39 2.778-4.807 4.572-10.117 5.289-15.621s0.334-11.097-1.117-16.454c-1.456-5.357-3.958-10.374-7.359-14.761s-7.635-8.058-12.462-10.802l-45.626-26.35c-8.041-4.66-14.309-11.848-17.835-20.444s-4.105-18.117-1.656-27.079v0.042z" />
<glyph unicode="&#xe918;" glyph-name="account-verification" horiz-adv-x="838" d="M682.566 843.179l-253.47 84.517c-8.299 2.764-17.27 2.764-25.569 0l-253.472-84.517c-40.3-13.387-75.357-39.134-100.19-73.582s-38.177-75.846-38.138-118.312v-207.027c0-305.985 372.217-474.978 388.158-482.020 5.171-2.299 10.767-3.486 16.426-3.486s11.255 1.187 16.426 3.486c15.94 7.042 388.157 176.035 388.157 482.020v207.027c0.042 42.466-13.303 83.864-38.135 118.312s-59.89 60.195-100.194 73.582zM739.98 444.258c0-220.7-255.656-365.461-323.668-400.091-68.091 34.509-323.667 178.823-323.667 400.091v207.027c0.002 25.478 8.022 50.309 22.922 70.974s35.927 36.119 60.099 44.17l240.647 80.229 240.645-80.229c24.176-8.051 45.2-23.504 60.099-44.17s22.919-45.497 22.924-70.974v-207.027zM429.096 927.697l314.095 941.983-0.317 0.107-313.779-942.090zM403.527 927.697l-313.779 942.090-0.317-0.107 314.095-941.983zM150.055 843.179l313.025-942.34 1.070 0.354-314.095 941.986zM11.727 651.285v0zM399.885-37.762l403.145 907.448-1.001 0.445-1.001 0.442-401.143-908.335zM432.738-37.762l-401.143 908.335-1.002-0.442-1.001-0.445 403.146-907.448zM820.894 651.285v0zM682.566 843.179l-314.092-941.986 1.070-0.354 313.022 942.34zM416.311 44.167l-448.905-885.704 449.962-228.059 449.527 228.911-450.584 884.852zM92.644 651.285v0zM175.665 766.43l313.779-942.087 0.275 0.088-314.054 941.999zM416.311 846.659l314.052 941.999-314.052 104.699-314.052-104.699 314.052-941.999zM656.957 766.43l-314.051-941.999 0.274-0.088 313.777 942.087zM739.98 651.285v0zM996.664 1785.162l-253.473 84.517-628.19-1883.965 253.472-84.522 628.19 1883.969zM742.875 1869.787c-211.987 70.605-441.142 70.605-653.127 0l627.555-1884.179c-195.384-65.075-406.599-65.075-601.985 0l627.557 1884.179zM89.432 1869.68l-253.472-84.517 628.19-1883.969 253.47 84.522-628.188 1883.965zM-162.97 1785.521c-238.396-79.192-445.775-231.494-592.667-435.275l1611.008-1161.299c-97.233-134.879-234.496-235.692-392.291-288.107l-626.049 1884.681zM-755.638 1350.245c-146.897-203.779-225.834-448.667-225.606-699.872l1985.941 1.824c0.154-166.272-52.098-328.366-149.327-463.25l-1611.008 1161.299zM-981.243 651.285v-207.027h1985.941v207.027h-1985.941zM-981.243 444.258c0-579.482 350.52-949.206 535.276-1107.391 199.892-171.143 395.857-261.39 444.71-282.964l802.286 1816.67c32.912-14.535 34.797-16.762 44.595-25.151 7.871-6.738 41.984-36.64 77.535-96.307 39.089-65.603 81.538-171.298 81.538-304.857h-1985.941zM-3.26-945.213c132.088-58.68 275.023-89.004 419.572-89.004v1985.94c133.232 0 264.974-27.95 386.719-82.037l-806.291-1814.899zM416.311-1034.217c144.547 0 287.484 30.324 419.571 89.004l-806.29 1814.899c121.745 54.087 253.488 82.037 386.72 82.037v-1985.94zM833.88-946.097c48.854 21.574 244.82 111.821 444.709 282.964 184.758 158.185 535.277 527.909 535.277 1107.391h-1985.941c0 133.559 42.449 239.254 81.537 304.857 35.553 59.668 69.666 89.569 77.535 96.307 9.798 8.389 11.684 10.617 44.597 25.151l802.286-1816.67zM1813.867 444.258v207.027h-1985.941v-207.027h1985.941zM1813.862 650.373c0.233 251.205-78.708 496.094-225.601 699.872l-1611.007-1161.299c-97.23 134.884-149.481 296.979-149.328 463.25l1985.936-1.824zM1588.261 1350.245c-146.893 203.777-354.271 356.083-592.668 435.275l-626.050-1884.681c-157.795 52.415-295.060 153.228-392.289 288.107l1611.007 1161.299zM-252.991 444.258c0 288.897 163.949 441.837 176.354 453.504 25.676 24.148 38.644 29.361 42.364 31.256l901.168-1769.703c71.731 36.529 246.533 131.435 417.038 291.798 157.24 147.88 449.015 483.551 449.015 993.145h-1985.939zM865.215 929.871c4.236-2.145 17.664-7.602 43.771-32.137 13.312-12.512 176.626-165.411 176.626-453.477h-1985.936c0-509.328 291.1-845.019 449.226-993.634 170.916-160.638 346.181-255.507 418.505-292.161l897.808 1771.408zM1085.612 444.258v207.027h-1985.936v-207.027h1985.936zM1085.612 651.193c-0.014-182.955-57.605-361.266-164.603-509.667l-1610.887 1161.467c-136.797-189.735-210.427-417.707-210.446-651.616l1985.936-0.183zM921.009 141.526c-106.999-148.401-257.987-259.37-431.565-317.184l-627.557 1884.179c-221.924-73.919-414.963-215.794-551.765-405.528l1610.887-1161.467zM489.719-175.569l240.645 80.23-628.104 1883.997-240.647-80.23 628.106-1883.997zM102.259-95.339l240.647-80.23 628.102 1883.997-240.645 80.23-628.104-1883.997zM343.18-175.658c-173.579 57.809-324.565 168.783-431.566 317.184l1610.883 1161.467c-136.802 189.734-329.835 331.609-551.759 405.528l-627.558-1884.179zM-88.386 141.526c-107 148.401-164.588 326.712-164.605 509.667l1985.939 0.183c-0.023 233.909-73.649 461.881-210.451 651.616l-1610.883-1161.467zM-252.991 651.285v-207.027h1985.939v207.027h-1985.939zM602.726 593.752c9.23-7.435 15.053-17.983 16.179-29.327s-2.532-22.553-10.17-31.163l-193.95-218.499c-4.912-5.534-11.091-9.933-18.083-12.865-6.992-2.937-14.62-4.333-22.326-4.091-7.706 0.237-15.293 2.113-22.207 5.478-6.913 3.37-12.978 8.145-17.748 13.982l-92.96 113.697c-7.421 9.076-10.799 20.508-9.391 31.777s7.488 21.448 16.902 28.3c9.414 6.855 21.39 9.821 33.294 8.247s22.762-7.559 30.183-16.64l63.257-77.382 163.379 184.056c3.784 4.264 8.434 7.761 13.68 10.29s10.989 4.044 16.896 4.456c5.911 0.411 11.874-0.288 17.543-2.058 5.674-1.77 10.947-4.576 15.523-8.258z" />
<glyph unicode="&#xe919;" glyph-name="accout-setting-active" horiz-adv-x="979" d="M488.982 615.723c-33.302 0-65.856-9.875-93.544-28.376s-49.269-44.797-62.013-75.561c-12.743-30.769-16.078-64.623-9.581-97.28 6.497-32.661 22.532-62.664 46.080-86.212s53.548-39.584 86.211-46.080c32.661-6.496 66.511-3.161 97.28 9.581 30.765 12.747 57.059 34.326 75.562 62.014 18.499 27.688 28.374 60.242 28.374 93.54 0 44.655-17.737 87.483-49.312 119.058s-74.405 49.315-119.056 49.315zM488.982 363.168c-16.651 0-32.928 4.933-46.773 14.185s-24.634 22.399-31.006 37.781c-6.372 15.382-8.039 32.309-4.791 48.64s11.266 31.334 23.040 43.106c11.774 11.774 26.776 19.792 43.106 23.040s33.258 1.581 48.64-4.791c15.382-6.372 28.53-17.163 37.781-31.004 9.247-13.846 14.185-30.123 14.185-46.775 0-22.328-8.869-43.738-24.656-59.526s-37.202-24.656-59.526-24.656zM657.35 447.35v0zM488.982 1565.522c-221.155 0-437.341-65.581-621.223-188.448l1055.359-1579.453c-128.508-85.865-279.588-131.695-434.136-131.695v1899.596zM-132.241 1377.075c-183.881-122.865-327.201-297.499-411.833-501.818l1754.998-726.941c-59.147-142.79-159.303-264.833-287.806-350.693l-1055.359 1579.453zM-544.073 875.256c-84.631-204.319-106.776-429.144-63.63-646.050l1863.097 370.594c30.15-151.582 14.674-308.699-44.468-451.485l-1754.998 726.941zM-607.704 229.207c43.146-216.901 149.642-416.14 306.020-572.518l1343.217 1343.215c109.283-109.284 183.706-248.521 213.86-400.103l-1863.097-370.594zM-301.684-343.312c156.379-156.378 355.617-262.874 572.521-306.020l370.593 1863.095c151.583-30.151 290.816-104.575 400.104-213.86l-1343.217-1343.215zM270.836-649.332c216.904-43.146 441.73-21.001 646.049 63.63l-726.943 1754.996c142.787 59.144 299.904 74.619 451.487 44.468l-370.593-1863.095zM916.885-585.701c204.319 84.631 378.951 227.951 501.818 411.831l-1579.455 1055.359c85.864 128.504 207.905 228.662 350.693 287.806l726.943-1754.996zM1418.703-173.871c122.867 183.884 188.447 400.068 188.447 621.221h-1899.596c0 154.553 45.83 305.634 131.694 434.139l1579.455-1055.359zM1607.15 447.35c0 296.558-117.809 580.969-327.506 790.666l-1343.215-1343.217c-146.546 146.548-228.874 345.306-228.874 552.55h1899.596zM1279.644 1238.016c-209.697 209.697-494.107 327.506-790.662 327.506v-1899.596c-207.249 0-406.008 82.33-552.554 228.873l1343.215 1343.217zM488.982 1312.963c171.199 0 338.557-50.767 480.906-145.882l-1055.358-1579.455c170.037-113.615 369.947-174.258 574.452-174.258v1899.595zM969.888 1167.081c142.349-95.114 253.298-230.304 318.811-388.474l-1754.994-726.944c78.259-188.937 210.787-350.422 380.824-464.037l1055.358 1579.455zM1288.7 778.607c65.518-158.17 82.659-332.214 49.259-500.128l-1863.092 370.593c-39.896-200.573-19.42-408.472 58.84-597.409l1754.994 726.944zM1337.958 278.479c-33.4-167.914-115.841-322.15-236.9-443.205l-1343.214 1343.214c-144.604-144.604-243.082-328.842-282.978-529.416l1863.092-370.593zM1101.058-164.726c-121.055-121.059-275.291-203.5-443.205-236.9l-370.593 1863.092c-200.574-39.896-384.812-138.374-529.416-282.978l1343.214-1343.214zM657.853-401.626c-167.914-33.4-341.959-16.259-500.128 49.259l726.944 1754.995c-188.937 78.259-396.836 98.735-597.409 58.839l370.593-1863.092zM157.725-352.367c-158.17 65.514-293.36 176.462-388.474 318.811l1579.455 1055.358c-113.615 170.037-275.1 302.566-464.037 380.826l-726.944-1754.995zM-230.749-33.556c-95.114 142.349-145.882 309.707-145.882 480.906h1899.595c0 204.505-60.643 404.415-174.258 574.452l-1579.455-1055.358zM-376.631 447.35c0 229.577 91.198 449.748 253.532 612.081l1343.218-1343.217c193.906 193.91 302.846 456.909 302.846 731.136h-1899.595zM-123.099 1059.431c162.333 162.333 382.505 253.532 612.082 253.532v-1899.595c274.227 0 537.226 108.94 731.136 302.846l-1343.218 1343.217zM880.195 367.376l-18.69 10.774c8.415 45.782 8.415 92.708 0 138.487l18.69 10.776c14.372 8.291 26.971 19.333 37.078 32.493 10.102 13.161 17.519 28.182 21.816 44.208 4.301 16.026 5.4 32.741 3.241 49.192s-7.542 32.316-15.832 46.688c-8.29 14.372-19.331 26.97-32.492 37.075s-28.182 17.519-44.21 21.818c-16.023 4.299-32.741 5.4-49.192 3.24s-32.314-7.54-46.685-15.831l-18.73-10.818c-35.381 30.226-76.034 53.658-119.924 69.116v21.594c0 33.491-13.303 65.61-36.989 89.292-23.681 23.682-55.799 36.986-89.288 36.986-33.494 0-65.613-13.304-89.295-36.986s-36.986-55.801-36.986-89.292v-21.594c-43.887-15.514-84.529-39.003-119.881-69.285l-18.815 10.902c-29.026 16.746-63.515 21.275-95.88 12.592s-59.955-29.868-76.701-58.894c-16.746-29.026-21.275-63.515-12.592-95.88s29.868-59.955 58.894-76.701l18.689-10.776c-8.414-45.779-8.414-92.705 0-138.487l-18.689-10.774c-29.026-16.745-50.21-44.335-58.894-76.702-8.683-32.363-4.154-66.854 12.592-95.878 16.746-29.028 44.336-50.212 76.701-58.893 32.366-8.686 66.854-4.154 95.88 12.591l18.731 10.819c35.39-30.23 76.061-53.662 119.965-69.12v-21.593c0-33.489 13.304-65.607 36.986-89.293 23.682-23.681 55.801-36.984 89.295-36.984 33.489 0 65.607 13.303 89.288 36.984 23.686 23.686 36.989 55.804 36.989 89.293v21.593c43.885 15.516 84.529 39.005 119.879 69.289l18.815-10.863c29.028-16.745 63.515-21.272 95.882-12.591 32.363 8.682 59.953 29.87 76.702 58.893 16.745 29.028 21.272 63.515 12.591 95.882-8.686 32.363-29.87 59.953-58.893 76.698l-0.045-0.040zM772.942 526.318c14.256-51.65 14.256-106.198 0-157.847-2.489-8.989-1.919-18.552 1.616-27.185s9.835-15.845 17.916-20.507l45.63-26.352c9.67-5.579 16.731-14.777 19.625-25.564s1.385-22.279-4.198-31.953c-5.583-9.675-14.777-16.736-25.564-19.625-10.788-2.894-22.283-1.385-31.958 4.198l-45.71 26.433c-8.090 4.684-17.501 6.545-26.762 5.285-9.261-1.256-17.835-5.561-24.38-12.23-37.469-38.249-84.667-65.536-136.508-78.924-9.051-2.324-17.065-7.595-22.791-14.982-5.721-7.386-8.829-16.464-8.82-25.805v-52.745c0-11.162-4.439-21.869-12.333-29.763s-18.597-12.328-29.763-12.328c-11.162 0-21.869 4.434-29.763 12.328s-12.328 18.601-12.328 29.763v52.7c0.004 9.345-3.101 18.423-8.824 25.809-5.723 7.382-13.741 12.653-22.789 14.982-51.844 13.441-99.031 40.786-136.465 79.093-6.544 6.669-15.122 10.97-24.382 12.23-9.26 1.256-18.675-0.601-26.761-5.285l-45.629-26.392c-4.789-2.809-10.086-4.644-15.586-5.392-5.5-0.752-11.095-0.41-16.461 1.006-5.367 1.42-10.4 3.887-14.81 7.261-4.409 3.37-8.109 7.582-10.885 12.39-2.775 4.804-4.573 10.115-5.288 15.618-0.715 5.507-0.335 11.099 1.119 16.455s3.954 10.374 7.355 14.759c3.401 4.39 7.637 8.058 12.463 10.805l45.629 26.348c8.080 4.661 14.382 11.874 17.917 20.507s4.103 18.196 1.614 27.185c-14.255 51.65-14.255 106.198 0 157.849 2.444 8.971 1.849 18.498-1.692 27.095s-9.829 15.78-17.882 20.427l-45.629 26.35c-9.673 5.582-16.733 14.778-19.626 25.565s-1.383 22.282 4.199 31.955c5.582 9.673 14.778 16.733 25.565 19.626s22.281 1.383 31.955-4.199l45.713-26.434c8.064-4.694 17.459-6.575 26.709-5.348s17.83 5.492 24.392 12.125c37.466 38.248 84.667 65.538 136.507 78.924 9.077 2.333 17.115 7.629 22.841 15.048s8.815 16.536 8.77 25.908v52.7c0 11.163 4.434 21.87 12.328 29.764s18.601 12.329 29.767 12.329c11.162 0 21.869-4.435 29.763-12.329s12.328-18.601 12.328-29.764v-52.7c-0.004-9.343 3.099-18.422 8.824-25.807 5.721-7.384 13.739-12.655 22.786-14.982 51.859-13.434 99.061-40.783 136.508-79.092 6.545-6.67 15.124-10.973 24.38-12.231 9.261-1.258 18.677 0.602 26.762 5.285l45.63 26.392c4.786 2.808 10.084 4.64 15.587 5.392 5.498 0.752 11.090 0.409 16.46-1.010 5.365-1.419 10.4-3.885 14.808-7.257 4.412-3.372 8.112-7.583 10.886-12.39 2.778-4.807 4.572-10.117 5.289-15.621s0.334-11.097-1.117-16.454c-1.456-5.357-3.958-10.374-7.359-14.761s-7.635-8.058-12.462-10.802l-45.626-26.35c-8.041-4.66-14.309-11.848-17.835-20.444s-4.105-18.117-1.656-27.079v0.042z" />
<glyph unicode="&#xe91a;" glyph-name="active-alerts" d="M743.741 30.505l194.263 343.455c41.585 73.441 57.411 158.68 44.954 242.152-12.452 83.472-52.47 160.381-113.684 218.484-61.21 58.103-140.099 94.063-224.102 102.156-84.009 8.093-168.311-12.147-239.487-57.497l-317.345-201.952c-15.371-9.787-28.348-22.901-37.975-38.373s-15.656-32.908-17.644-51.022c-1.988-18.114 0.116-36.443 6.157-53.635s15.865-32.808 28.747-45.697l103.486-103.486c-25.844-39.014-37.405-85.76-32.726-132.326 4.68-46.561 25.313-90.071 58.403-123.162s76.603-53.724 123.165-58.404c46.562-4.68 93.31 6.881 132.324 32.727l99.556-99.558c13.266-13.251 29.409-23.26 47.181-29.245 17.766-5.985 36.68-7.782 55.255-5.258 18.58 2.529 36.326 9.313 51.85 19.83 15.524 10.511 28.411 24.468 37.652 40.781l-0.031 0.031zM254.313 187.126c-17.665 17.812-29.395 40.648-33.586 65.377-4.191 24.735-0.637 50.161 10.174 72.796l161.585-161.587c-22.637-10.808-48.060-14.362-72.794-10.173-24.733 4.193-47.568 15.923-65.379 33.587zM643.354 50.273c-6.221-0.87-12.564-0.276-18.519 1.741s-11.351 5.402-15.764 9.876l-484.065 484.067c-4.295 4.297-7.571 9.504-9.585 15.236s-2.715 11.843-2.052 17.882c0.664 6.040 2.675 11.852 5.886 17.010s7.539 9.529 12.665 12.79l317.345 201.952c55.893 35.56 122.071 51.416 188.006 45.047 65.94-6.369 127.862-34.597 175.913-80.198 48.056-45.6 79.488-105.955 89.298-171.471 9.815-65.516-2.555-132.431-35.139-190.11l-194.263-343.455c-3.036-5.468-7.301-10.158-12.457-13.691-5.161-3.538-11.075-5.821-17.27-6.676z" />
<glyph unicode="&#xe91b;" d="M995.726 459.249c0-270.311-219.131-489.442-489.442-489.442s-489.442 219.131-489.442 489.442c0 270.311 219.131 489.442 489.442 489.442s489.442-219.131 489.442-489.442z" />
<glyph unicode="&#xe91c;" d="M506.081 744.812l-317.028-285.325h95.109v-253.621h443.838v253.621h95.108l-317.027 285.325zM506.081 595.81c66.578 0 120.473-53.895 120.473-120.471 0-95.106-120.473-206.070-120.473-206.070s-120.471 110.964-120.471 206.070c0 66.576 53.895 120.471 120.471 120.471zM506.081 522.893c-12.612 0-24.708-5.011-33.626-13.929s-13.929-21.014-13.929-33.626c0-12.612 5.010-24.708 13.929-33.625s21.014-13.929 33.626-13.929c12.612 0 24.708 5.010 33.627 13.929s13.926 21.014 13.926 33.625c0 12.612-5.007 24.708-13.926 33.626s-21.015 13.929-33.627 13.929z" />
<glyph unicode="&#xe91d;" glyph-name="agebetween" horiz-adv-x="723" d="M108.563-31.25c-15.779 6.764-22.29 18.281-21.539 35.563 1.002 18.787 0.501 37.569 0 56.35 0 5.765 1.503 9.77 5.76 13.776 28.802 26.799 44.33 60.109 46.083 99.43 2.003 44.827-0.501 88.66-19.285 130.482-18.784 41.827-47.084 75.887-85.152 101.433-5.009 3.506-7.013 6.261-5.76 12.773 13.274 82.398 77.889 143.006 163.042 152.273-27.8 5.76-50.090 19.284-63.864 44.83-10.769 19.785-13.524 40.823-9.267 62.863 8.765 45.081 45.582 72.379 91.414 71.378 44.58-1.002 79.893-35.564 85.653-81.897 5.51-43.829-23.792-81.897-75.385-97.174 47.335-4.759 86.906-23.793 118.462-58.355 32.308-35.313 47.084-77.388 47.084-125.224-0.251-36.813 0-73.882 0-110.698 0-41.074-17.782-70.879-55.6-87.654-5.51-2.506-5.009-6.264-5.009-10.523 0-38.816 0-77.637 0-116.459 0-19.034-0.751-38.316 0.251-57.35 0.752-17.282-5.76-28.805-21.538-35.563-65.117-0.253-130.234-0.253-195.35-0.253zM411.052-31.25c-16.78 6.258-22.791 18.528-22.541 35.81 0.501 48.086 0.251 96.425 0 144.51 0 6.764 1.753 11.523 6.762 16.282 29.553 28.046 45.331 62.609 45.582 103.436 0.251 42.574 1.002 85.149-0.251 127.726-2.254 80.144-37.567 143.256-102.934 189.339-6.762 4.758-8.515 9.016-7.013 16.78 15.027 77.138 69.625 132.237 146.763 147.013 3.757 0.751 7.764 1.252 11.771 3.256-2.755 1.002-5.51 1.753-8.265 2.755-39.57 12.522-65.116 49.589-62.862 90.913 2.254 42.326 30.805 74.383 72.63 82.648 1.503 0.25 3.005 1.002 4.508 1.503 8.765 0 17.531 0 26.297 0 1.002-0.501 2.254-1.252 3.256-1.503 43.578-9.267 69.875-40.322 72.379-84.652 2.254-40.072-23.792-76.387-63.614-89.16-2.254-0.751-4.508-1.503-8.515-3.005 3.506-1.002 4.759-1.503 6.261-1.503 74.634-10.018 134.99-65.117 151.771-138.248 1.253-6.010 2.753-12.021 4.006-18.032 0-82.648 0-165.296 0-247.947-0.747-2-1.5-4.006-2-6.005-7.264-26.799-23.046-47.339-48.339-58.856-8.264-3.759-9.764-8.264-9.764-16.029 0.247-86.654-0.253-173.062 0.5-259.717 0-17.282-5.512-29.551-21.040-36.816-65.116-0.5-130.233-0.5-195.349-0.5zM305.548-31.25c15.778 6.764 22.289 18.281 21.538 35.563-1.002 18.787-0.501 37.569 0 56.35 0 5.765-1.503 9.77-5.76 13.776-28.802 26.799-44.33 60.109-46.082 99.43-2.003 44.827 0.501 88.66 19.284 130.482 18.784 41.827 47.084 75.887 85.153 101.433 5.009 3.506 7.013 6.261 5.76 12.773-13.274 82.398-77.89 143.006-163.042 152.273 27.8 5.76 50.090 19.284 63.864 44.83 10.769 19.785 13.525 40.823 9.267 62.863-8.765 45.081-45.581 72.379-91.414 71.378-44.58-1.002-79.893-35.564-85.653-81.897-5.51-43.829 23.793-81.897 75.385-97.174-47.335-4.759-86.906-23.793-118.462-58.355-32.308-35.313-47.085-77.388-47.085-125.224 0.251-36.813 0-73.882 0-110.698 0-41.074 17.782-70.879 55.6-87.654 5.51-2.506 5.009-6.264 5.009-10.523 0-38.816 0-77.637 0-116.459 0-19.034 0.751-38.316-0.251-57.35-0.751-17.282 5.76-28.805 21.538-35.563 65.117-0.253 130.234-0.253 195.35-0.253z" />
<glyph unicode="&#xe91e;" d="M1022.084 442.667c0-279.48-226.563-506.044-506.044-506.044s-506.044 226.563-506.044 506.044c0 279.48 226.563 506.044 506.044 506.044s506.044-226.563 506.044-506.044z" />
<glyph unicode="&#xe91f;" d="M760.256 244.386h-305.212l81.391 81.391h223.821zM271.918 244.386v101.739l320.675 319.453c7.731 8.139 20.753 8.139 28.894 0l71.625-71.623c8.137-8.139 8.137-20.754 0-28.893l-320.677-320.676zM800.951 814.115h-569.728c-45.171 0-81.39-36.218-81.39-81.39v-569.73c0-21.585 8.575-42.287 23.838-57.549 15.264-15.266 35.965-23.838 57.551-23.838h569.728c21.585 0 42.287 8.572 57.549 23.838 15.266 15.262 23.842 35.964 23.842 57.549v569.73c0 21.586-8.576 42.288-23.842 57.551-15.262 15.263-35.964 23.838-57.549 23.838z" />
<glyph unicode="&#xe920;" d="M206.083 685.99h599.287v-475.435h-599.287v475.435z" />
<glyph unicode="&#xe921;" d="M405.839 369.374c19.701 0 35.672 15.97 35.672 35.674 0 19.699-15.971 35.669-35.672 35.669s-35.672-15.97-35.672-35.669c0-19.703 15.971-35.674 35.672-35.674z" />
<glyph unicode="&#xe922;" d="M715.477 473.826c26.825-137.267-81.045-268.54-224.021-268.54-125.848 0-228.298 102.451-228.298 228.301 0 11.127 110.44 31.962 163.803 162.378 97.6-119.57 230.298-106.446 259.409-102.448l-42.236 92.745-134.699 61.356 99.883 45.375c-188.919 87.039-403.235-53.080-403.235-259.405 0-157.525 127.848-285.376 285.373-285.376 205.756 0 345.877 212.604 259.691 403.235l-35.669-77.62z" />
<glyph unicode="&#xe923;" d="M577.088 369.374c19.703 0 35.674 15.97 35.674 35.674 0 19.699-15.97 35.669-35.674 35.669-19.699 0-35.669-15.97-35.669-35.669 0-19.703 15.97-35.674 35.669-35.674z" />
<glyph unicode="&#xe924;" d="M736.858 616.228l-31.394-68.49-31.39 68.49-68.489 31.391 68.489 31.391 31.39 68.49 31.394-68.49 68.489-31.391-68.489-31.391z" />
<glyph unicode="&#xe925;" d="M1022.084 448.282c0-279.48-226.563-506.044-506.044-506.044s-506.044 226.563-506.044 506.044c0 279.48 226.563 506.044 506.044 506.044s506.044-226.563 506.044-506.044z" />
<glyph unicode="&#xe926;" d="M627.221 207.71c-9.105 3.396-12.365 10.057-12.228 19.43 0.273 26.091 0.137 52.314 0 78.404 0 3.669 0.951 6.251 3.669 8.832 16.034 15.219 24.593 33.967 24.73 56.115 0.137 23.1 0.542 46.199-0.137 69.299-1.22 43.482-20.382 77.726-55.846 102.727-3.669 2.582-4.621 4.892-3.806 9.104 8.154 41.851 37.777 71.745 79.629 79.761 2.035 0.408 4.211 0.68 6.383 1.767-1.493 0.543-2.987 0.951-4.48 1.495-21.47 6.794-35.332 26.904-34.108 49.324 1.225 22.964 16.713 40.356 39.407 44.841 0.815 0.136 1.63 0.544 2.445 0.815 4.753 0 9.51 0 14.268 0 0.542-0.272 1.22-0.68 1.766-0.815 23.642-5.028 37.909-21.877 39.266-45.928 1.225-21.741-12.907-41.443-34.513-48.373-1.22-0.407-2.445-0.815-4.617-1.63 1.899-0.544 2.581-0.815 3.396-0.815 40.491-5.435 73.237-35.329 82.342-75.006 0.678-3.261 1.493-6.522 2.176-9.783 0-44.84 0-89.682 0-134.521-0.41-1.088-0.819-2.176-1.088-3.26-3.942-14.541-12.501-25.685-26.227-31.932-4.484-2.039-5.299-4.484-5.299-8.7 0.137-47.014-0.137-93.892 0.273-140.907 0-9.374-2.991-16.034-11.413-19.972-35.328-0.273-70.66-0.273-105.988-0.273z" />
<glyph unicode="&#xe927;" d="M463.044 207.706c-8.563 3.669-12.096 9.92-11.686 19.298 0.542 10.189 0.269 20.382 0 30.571 0 3.127 0.815 5.299 3.123 7.475 15.629 14.537 24.051 32.61 25.003 53.943 1.088 24.32-0.273 48.102-10.462 70.793-10.193 22.694-25.545 41.173-46.199 55.031-2.718 1.903-3.805 3.396-3.125 6.929 7.2 44.706 42.259 77.589 88.459 82.616-15.083 3.125-27.179 10.463-34.65 24.323-5.845 10.735-7.339 22.149-5.026 34.106 4.753 24.458 24.73 39.269 49.596 38.726 24.183-0.543 43.345-19.295 46.468-44.433 2.991-23.779-12.907-44.433-40.9-52.721 25.681-2.582 47.151-12.908 64.273-31.66 17.527-19.162 25.545-41.988 25.545-67.942-0.137-19.972 0-40.081 0-60.058 0-22.285-9.647-38.455-30.165-47.556-2.987-1.361-2.718-3.396-2.718-5.709 0-21.060 0-42.121 0-63.185 0-10.325-0.405-20.787 0.137-31.117 0.41-9.374-3.123-15.625-11.686-19.294-35.328-0.137-70.656-0.137-105.984-0.137z" />
<glyph unicode="&#xe928;" d="M255.167 350.387c2.31 8.286 3.669 16.981 7.066 24.866 14.403 34.103 40.221 54.080 76.772 60.058 0.68 0.137 1.359 0.273 2.038 0.405 0.68 0.137 1.359 0.273 2.99 0.683-14.268 3.26-25.002 10.052-32.475 21.602-7.61 11.55-9.512 24.051-6.522 37.504 5.164 23.778 25.138 38.455 50.955 37.504 23.507-0.951 41.851-18.752 44.976-43.482 2.174-18.21-7.337-44.975-39.677-53.129 5.435-1.088 10.463-1.903 15.354-3.127 39.27-9.783 68.89-43.887 72.56-84.245 0.951-10.871 1.088-22.148 0-33.020-1.903-17.391-11.686-29.756-27.447-37.094-3.533-1.63-4.484-3.533-4.484-7.339 0.136-14.81-0.136-29.483 0.136-44.297 0.136-9.374-3.125-16.166-12.229-19.43-35.329 0-70.658 0-105.987 0-8.561 3.942-11.822 10.598-11.414 19.977 0.544 13.858 0.136 27.716 0.136 41.715 0 2.445 0 5.026 0 6.251-6.115 4.075-11.686 7.066-16.442 11.004-9.24 7.066-13.588 17.122-16.305 27.994 0 11.819 0 23.642 0 35.601z" />
<glyph unicode="&#xe929;" glyph-name="bell" horiz-adv-x="1073" d="M784.964 19.149l198.549 351.027c42.501 75.059 58.675 162.179 45.943 247.493-12.727 85.313-53.628 163.918-116.19 223.302s-143.189 96.137-229.049 104.408c-85.86 8.271-172.017-12.415-244.766-58.765l-324.343-206.406c-15.71-10.003-28.973-23.406-38.812-39.219s-16.001-33.634-18.033-52.147c-2.032-18.513 0.118-37.246 6.293-54.817s16.215-33.532 29.381-46.704l105.768-105.768c-26.413-39.873-38.23-87.654-33.447-135.241 4.783-47.592 25.871-92.062 59.691-125.884s78.292-54.906 125.881-59.689c47.589-4.784 95.368 7.031 135.242 33.446l101.752-101.751c13.556-13.541 30.057-23.771 48.221-29.891 18.159-6.115 37.488-7.953 56.476-5.369 18.988 2.58 37.122 9.513 52.99 20.261s29.038 25.010 38.483 41.687l-0.029 0.029zM284.742 179.22c-18.054 18.208-30.043 41.545-34.326 66.823s-0.651 51.263 10.398 74.401l165.148-165.152c-23.136-11.049-49.12-14.677-74.399-10.396s-48.617 16.272-66.821 34.324zM682.364 39.351c-6.363-0.892-12.844-0.283-18.929 1.78s-11.6 5.52-16.111 10.094l-494.741 494.742c-4.39 4.391-7.738 9.713-9.796 15.572s-2.775 12.104-2.097 18.276c0.678 6.172 2.734 12.114 6.016 17.386s7.705 9.739 12.944 13.072l324.344 206.406c57.127 36.344 124.76 52.55 192.154 46.041s130.677-35.361 179.79-81.967c49.113-46.606 81.242-108.292 91.268-175.252 10.030-66.96-2.609-135.352-35.913-194.3l-198.549-351.032c-3.101-5.588-7.461-10.381-12.732-13.995s-11.313-5.949-17.647-6.822z" />
<glyph unicode="&#xe92a;" d="M770.667-33.289h-554.884c-117.821 0-213.333 95.513-213.333 213.333v554.884c0 117.821 95.513 213.333 213.333 213.333h554.884c117.821 0 213.333-95.513 213.333-213.333v-554.884c0-117.821-95.513-213.333-213.333-213.333z" />
<glyph unicode="&#xe92b;" d="M420.395 654.269l187.162-181.616c2.223-2.163 3.793-4.506 4.71-7.027 0.934-2.526 1.399-5.227 1.399-8.111 0-2.88-0.465-5.585-1.399-8.107-0.917-2.522-2.487-4.864-4.71-7.027l-187.162-182.157c-5.184-5.047-11.663-7.569-19.439-7.569s-14.44 2.701-19.994 8.107c-5.554 5.406-8.331 11.712-8.331 18.918s2.777 13.513 8.331 18.918l163.281 158.916-163.281 158.917c-5.184 5.045-7.775 11.258-7.775 18.638 0 7.395 2.777 13.794 8.331 19.2s12.033 8.108 19.438 8.108c7.405 0 13.885-2.703 19.439-8.108z" />
<glyph unicode="&#xe92c;" glyph-name="arrow-down" horiz-adv-x="1479" d="M704.079 22.957l-666.967 666.968 222.427 222.27 444.54-444.697 444.542 444.697 222.424-222.27-666.966-666.968z" />
<glyph unicode="&#xe92d;" d="M961.805 447.743c0-248.367-201.341-449.708-449.708-449.708s-449.708 201.341-449.708 449.708c0 248.367 201.341 449.708 449.708 449.708s449.708-201.341 449.708-449.708z" />
<glyph unicode="&#xe92e;" d="M262.492 125.054c0-30.776-24.949-55.726-55.726-55.726s-55.726 24.949-55.726 55.726c0 30.776 24.949 55.726 55.726 55.726s55.726-24.949 55.726-55.726z" />
<glyph unicode="&#xe92f;" d="M834.784 447.743c0-178.215-144.472-322.688-322.688-322.688s-322.688 144.472-322.688 322.688c0 178.215 144.472 322.688 322.688 322.688s322.688-144.472 322.688-322.688z" />
<glyph unicode="&#xe930;" d="M435.642 502.548c4.67 8.186 12.406 14.384 21.015 18.115 9.585 4.117 20.434 5.908 30.894 4.747 1.654-0.195 3.356-0.437 4.962-0.775 3.261-0.63 7.201-1.841 10.364-3.053 0.68 1.067 1.801 1.745 2.724 2.809 11.092 13.515 45.099 16.807 49.185 25.72l0.147 0.922c-3.064 2.809-6.275 5.375-9.585 7.798-1.167 0.823-2.334 1.646-3.503 2.469-4.913 3.294-9.923 6.103-15.13 8.428-14.643 6.395-30.164 9.591-45.537 9.591-32.741 0-64.705-14.384-85.964-40.541-5.255-6.442-9.39-13.708-12.456-21.747 15.424-8.816 34.884-10.221 50.986-18.407 0.535 1.356 1.169 2.664 1.899 3.924z" />
<glyph unicode="&#xe931;" d="M748.416 466.171c-0.535-15.644-1.801-32.355-3.746-49.987l-1.656-15.111-14.983-3.924c-39.65-10.074-73.365-16.952-101.388-20.295 0.34 13.756 0.097 26.833-0.73 39.136 0 0.63-0.097 1.356-0.097 2.083 5.010 0.63 10.362 1.453 16.104 2.375 16.589 2.761 36.34 6.78 59.838 12.593 0.877 10.51 1.606 20.295 1.801 29.352 0.195 3.051 0.195 6.055 0.195 8.913 0.145 6.248 0.145 12.060 0 17.437-0.34 20.586-1.801 42.382-7.979 62.387-1.119 3.826-2.481 7.556-3.988 11.237-4.573 10.947-11.579 21.166-21.603 27.803-9.583 6.345-21.502 9.058-32.888 7.46-13.134-1.793-28.995-10.172-33.373-23.396-4.281-12.933-1.849-28.966 1.167-41.897l5.692-24.219c-0.34 0.048-0.68 0.048-1.022 0.048-8.66 0.145-17.464 0.63-26.222 0.63h-0.243c-0.924 0-1.849 0-2.724-0.048-0.875 0-1.75 0-2.628-0.048-1.654-0.048-3.308-0.099-4.865-0.195-1.314-0.097-2.676-0.193-3.988-0.29-0.147 0-0.294-0.048-0.487-0.048-1.362-0.145-2.774-0.292-4.137-0.485-1.119-0.145-2.286-0.338-3.356-0.582-1.314-0.242-2.529-0.483-3.698-0.775-0.583-0.145-1.119-0.29-1.654-0.435-2.773-0.777-5.304-1.696-7.637-2.809-2.141-0.97-4.038-2.034-5.692-3.342-0.779-0.63-1.606-1.356-2.336-2.131-0.779-0.775-1.459-1.6-2.141-2.471-0.632-0.775-1.266-1.646-1.801-2.519-1.119-1.743-2.141-3.584-2.968-5.472-0.437-0.873-0.779-1.696-1.070-2.568-0.243-0.582-0.437-1.115-0.583-1.745-0.195-0.483-0.34-1.016-0.437-1.501l-0.487-1.646c-0.099-0.437-0.243-0.92-0.34-1.453-1.364-6.007-1.606-12.303-0.877-18.407 1.022-8.621 4.185-17.244 9.39-24.315 0.779-0.968 1.509-1.986 2.336-2.906 1.654-1.841 3.404-3.584 5.4-5.085 0.632-0.485 4.913-3.391 4.913-3.391 1.459-12.982 1.994-28.094 1.654-45.531-2.871 0.726-5.545 1.453-8.028 2.471-0.485 0.193-0.924 0.386-1.41 0.582-0.924 0.386-1.801 0.775-2.676 1.161-16.2 7.267-29.53 17.68-38.775 30.467-10.022 13.853-15.714 29.692-17.319 45.918-0.195 2.326-0.388 4.602-0.388 6.926v1.793c0 15.887 4.231 31.775 12.454 45.821 1.167 2.034 2.481 4.021 3.795 5.957 0.535 0.726 0.924 1.405 1.654 2.133 0.682 1.065 1.41 2.131 2.336 3.196 0.195 0.242 0.34 0.437 0.535 0.63 11.092 13.127 27.681 21.651 49.283 25.331h0.583c0.68 0.195 1.606 0.34 2.481 0.533h0.145c-0.145 2.471-0.34 4.795-0.34 7.12 0 0.922 0 1.841 0.048 2.811 0.050 0.726 0.099 1.453 0.147 2.179 0 0.145 0.048 0.29 0.048 0.435 1.314 16.517 6.471 30.419 15.325 41.366 17.466 21.747 43.932 33.663 71.272 33.663 12.649 0 25.542-2.664 37.704-7.991 15.714-6.782 29.677-19.037 40.525-35.021 15.229-22.426 23.792-55.847 25.737-98.714 0.535-10.026 0.535-20.343 0.195-31.193z" />
<glyph unicode="&#xe932;" d="M605.868 416.040c0 1.067-0.193 2.326-0.193 3.342-0.147 2.034-0.292 4.069-0.439 6.055-2.189 24.702-6.811 48.049-12.893 66.601-0.924 0-1.799 0-2.676-0.048-0.875 0-1.75 0-2.626-0.048-1.656-0.050-3.31-0.099-4.865-0.195-1.314-0.097-2.676-0.193-3.99-0.29-0.147 0-0.292-0.048-0.487-0.048-1.362-0.145-2.773-0.292-4.135-0.485-1.121-0.145-2.288-0.338-3.358-0.582-1.314-0.242-2.529-0.483-3.698-0.775-0.583-0.145-1.119-0.29-1.654-0.437-2.773-0.775-5.302-1.694-7.637-2.809-2.141-0.968-4.038-2.034-5.692-3.341-0.779-0.63-1.606-1.356-2.336-2.131-0.779-0.777-1.459-1.6-2.141-2.471-0.632-0.775-1.264-1.646-1.799-2.471-0.925-1.501-1.801-3.051-2.531-4.649 0.827-2.761 1.704-5.91 2.531-9.301 1.799-7.361 3.599-16.032 4.865-25.042 0.437-2.954 0.827-6.005 1.167-9.154 0-1.113 0.147-2.324 0.147-3.584 0.437-3.777 0.777-7.701 1.020-11.819 0.634-10.124 0.827-21.313 0.583-33.713 0.147-1.258 0.147-2.324 0-3.536-0.048-2.034-0.097-4.069-0.145-6.152-0.048-1.791-0.097-3.632-0.147-5.472-0.34-10.172-1.020-20.975-1.994-32.501-117.928-28.821-157.433-21.506-169.060-16.855-2.481 0.968-5.108 2.179-7.929 3.681-4.33 2.324-8.855 5.278-12.991 8.961-0.388 0.193-0.535 0.386-0.728 0.726-2.336 2.131-4.672 4.455-6.471 7.12-15.374 21.168-15.033 49.842 1.070 69.603 7.346 9.058 25.395 14.046 49.867 14.046h3.016l34.298-0.531c-3.941 17.097-8.951 34.437-11.092 51.923-1.217 9.786-0.827 20.101 2.968 29.111-16.104 8.138-35.564 9.591-50.986 18.407-5.060-13.708-7.006-29.499-5.79-47.419-28.411-3.924-49.867-14.823-63.975-32.067-31.282-38.41-32.548-93.578-3.064-134.314 3.599-4.989 7.493-9.639 12.162-13.901 10.752-10.317 24.13-18.648 39.455-24.897 13.575-5.522 31.477-8.186 53.613-8.186 40.72 0 95.939 9.058 167.067 27.561l17.854 4.651 1.994 18.115c2.237 20.635 3.599 40.251 4.233 58.704 0.097 2.083 0.145 4.166 0.195 6.248v3.391c0.437 14.435 0.242 28.143-0.585 40.977z" />
<glyph unicode="&#xe933;" d="M552.952 378.646c-2.869 0.726-5.545 1.453-8.028 2.471-0.485 0.193-0.924 0.386-1.41 0.582-0.924 0.386-1.799 0.775-2.676 1.161 0 0.582-0.097 1.115-0.145 1.745 0.243 12.4 0.048 23.589-0.583 33.711-0.243 4.117-0.585 8.041-1.022 11.819 0 1.26-0.147 2.471-0.147 3.586-0.097 0.63-0.145 1.258-0.243 1.839 0.779-0.968 1.509-1.986 2.336-2.906 1.654-1.841 3.406-3.584 5.4-5.085 0.632-0.485 4.913-3.391 4.913-3.391 1.41-12.982 1.946-28.094 1.606-45.531z" />
<glyph unicode="&#xe934;" d="M545.307 558.88c-1.169 0.823-2.336 1.646-3.503 2.471-20.289-3.876-35.954-12.255-46.511-24.8-0.195-0.242-0.34-0.437-0.535-0.63-0.924-1.067-1.654-2.131-2.336-3.198-0.728-0.726-1.119-1.405-1.654-2.131-1.119-1.694-2.237-3.341-3.259-5.085 1.654-0.193 3.358-0.437 4.964-0.775 3.259-0.63 6.519-1.598 9.73-2.809 0.68 1.065 1.41 2.131 2.334 3.196 11.092 13.515 27.878 22.232 49.819 25.963h0.583c-3.064 2.761-6.324 5.377-9.631 7.798z" />
<glyph unicode="&#xe935;" d="M573.625 309.866c-90.052-29.014-162.831-35.745-213.38-13.95 0 0 7.153 11.963 13.428 21.846 2.821-1.455 5.448-2.664 7.929-3.683 11.627-4.649 51.132-11.915 169.060 16.855 0.974 11.529 1.654 22.331 1.996 32.501 0.097 1.841 0.097 3.683 0.145 5.474 0.099 2.083 0.099 4.117 0.147 6.152 0.145 1.26 0.145 2.324 0 3.536 0.243 12.4 0.048 23.589-0.583 33.713-0.243 4.117-0.585 8.039-1.022 11.819 0 1.258-0.147 2.469-0.147 3.584-0.34 3.147-0.779 6.248-1.167 9.154-1.266 9.009-3.016 17.678-4.865 25.042l24.713 10.269c12.796-54.444 12.261-108.498 3.746-162.312z" />
<glyph unicode="&#xe936;" d="M723.508 417.881c-22.623-8.283-47.921-13.37-75.117-16.276l-6.471 18.89c16.591 2.761 36.342 6.782 59.84 12.595 0.875 10.51 1.606 20.295 1.801 29.352 0.193 3.051 0.193 6.055 0.193 8.913 0.147 6.248 0.147 12.060 0 17.437-0.34 20.584-1.799 42.382-7.978 62.387l17.076 13.706c15.569-45.384 19.267-94.305 10.655-147.004z" />
<glyph unicode="&#xe937;" d="M1023.806 679.708c0-52.201-42.317-94.518-94.518-94.518s-94.518 42.317-94.518 94.518c0 52.201 42.317 94.518 94.518 94.518s94.518-42.317 94.518-94.518z" />
<glyph unicode="&#xe938;" d="M984.181 679.708c0-30.307-24.569-54.876-54.876-54.876s-54.876 24.569-54.876 54.876c0 30.307 24.569 54.876 54.876 54.876s54.876-24.569 54.876-54.876z" />
<glyph unicode="&#xe939;" d="M239.13 125.054c0-17.868-14.485-32.353-32.353-32.353s-32.353 14.485-32.353 32.353c0 17.868 14.485 32.353 32.353 32.353s32.353-14.485 32.353-32.353z" />
<glyph unicode="&#xe93a;" d="M263.034 937.207h484.998c136.51 0 247.172-110.663 247.172-247.172v-484.998c0-136.51-110.663-247.172-247.172-247.172h-484.998c-136.51 0-247.172 110.663-247.172 247.172v484.998c0 136.51 110.663 247.172 247.172 247.172z" />
<glyph unicode="&#xe93b;" d="M578.080 251.219l-186.742 181.213c-2.217 2.157-3.785 4.491-4.7 7.009-0.932 2.518-1.395 5.215-1.395 8.090 0 2.878 0.463 5.572 1.395 8.090 0.915 2.518 2.482 4.855 4.7 7.013l186.742 181.748c5.169 5.033 11.635 7.55 19.392 7.55s14.407-2.697 19.95-8.090c5.54-5.393 8.312-11.685 8.312-18.876s-2.772-13.483-8.312-18.877l-162.915-158.558 162.915-158.558c5.169-5.035 7.758-11.232 7.758-18.594 0-7.38-2.772-13.764-8.312-19.159-5.54-5.392-12.006-8.090-19.396-8.090-7.387 0-13.852 2.698-19.392 8.090z" />
<glyph unicode="&#xe93c;" horiz-adv-x="1047" d="M248.886 943.313h554.21c128.532 0 232.727-104.196 232.727-232.727v-540.591c0-128.532-104.196-232.727-232.727-232.727h-554.21c-128.532 0-232.727 104.196-232.727 232.727v540.591c0 128.532 104.196 232.727 232.727 232.727z" />
<glyph unicode="&#xe93d;" horiz-adv-x="1047" d="M684.234 539.781h-93.743v-22.484h93.743v22.484zM498.362 451.563c9.267 4.077 17.282 10.494 23.238 18.602 5.779 8.56 8.688 18.693 8.318 28.972 0.228 9.209-1.573 18.355-5.281 26.808-3.677 7.021-9.137 12.982-15.844 17.301-6.858 4.869-14.592 8.406-22.789 10.422-9.761 2.455-19.752 3.905-29.812 4.324h-108.635v-230.13h111.353c10.051-0.198 20.084 0.968 29.812 3.465 9.493 2.374 18.451 6.484 26.408 12.116 7.892 4.838 14.287 11.722 18.483 19.903 4.734 9.381 7.038 19.775 6.707 30.25 0.391 13.033-3.298 25.868-10.561 36.759-7.68 10.55-18.911 18.057-31.688 21.183l0.291 0.026zM395.774 517.297h49.987c4.45-0.112 8.876-0.689 13.203-1.72 3.791-0.689 7.391-2.162 10.563-4.326 3.496-1.734 6.391-4.454 8.318-7.815 2.178-3.996 3.237-8.492 3.063-13.026 0.351-3.779-0.265-7.582-1.799-11.062-1.531-3.479-3.928-6.521-6.968-8.844-6.924-3.877-14.841-5.688-22.789-5.211h-53.578v52.003zM486.954 381.48c-1.808-3.998-4.682-7.438-8.318-9.951-3.656-2.209-7.652-3.819-11.83-4.769-4.897-1.047-9.884-1.624-14.892-1.72h-56.141v63.153h57.884c9.323 0.517 18.572-1.911 26.405-6.928 3.433-3.186 6.083-7.101 7.752-11.448 1.671-4.347 2.316-9.014 1.885-13.642 0.249-5.032-0.654-10.054-2.639-14.694h-0.107zM718.429 435.123c-2.951 11.436-7.999 22.244-14.892 31.891-7.252 9.719-16.784 17.559-27.781 22.851-10.996 5.29-23.128 7.873-35.356 7.526-12.053 0.156-24.003-2.206-35.067-6.931-9.812-4.513-18.749-10.685-26.405-18.237-7.622-8.134-13.561-17.657-17.482-28.034-4.173-11.208-6.239-23.075-6.1-35.016-0.172-11.806 1.897-23.543 6.1-34.6 3.181-10.433 8.902-19.942 16.663-27.695 7.515-8.062 16.812-14.301 27.171-18.237 11.206-4.157 23.098-6.207 35.067-6.044 17.119-0.291 33.927 4.531 48.219 13.833 15.123 10.177 25.775 25.633 29.812 43.25h-40.269c-2.104-6.474-6.451-12.009-12.279-15.632-7.026-4.636-15.316-7.054-23.766-6.931-10.803-0.694-21.467 2.709-29.812 9.509-3.97 4.336-7.007 9.418-8.932 14.946-1.925 5.525-2.695 11.378-2.264 17.203h120.122c1.157 12.176 0.265 24.457-2.641 36.345h-0.107zM601.055 428.193c0.172 3.612 1.068 7.156 2.641 10.422 0.68 4.243 2.672 8.173 5.702 11.255 3.426 3.635 7.419 6.707 11.832 9.093 5.723 2.835 12.086 4.173 18.483 3.882 4.617 0.419 9.272-0.135 13.656-1.627s8.397-3.884 11.774-7.021c6.079-7.45 9.758-16.524 10.561-26.054l-74.65 0.051z" />
<glyph unicode="&#xe93e;" horiz-adv-x="1047" d="M248.886 943.313h554.21c128.532 0 232.727-104.196 232.727-232.727v-540.591c0-128.532-104.196-232.727-232.727-232.727h-554.21c-128.532 0-232.727 104.196-232.727 232.727v540.591c0 128.532 104.196 232.727 232.727 232.727z" />
<glyph unicode="&#xe93f;" horiz-adv-x="1047" d="M684.234 539.781h-93.743v-22.484h93.743v22.484zM498.362 451.563c9.267 4.077 17.282 10.494 23.238 18.602 5.779 8.56 8.688 18.693 8.318 28.972 0.228 9.209-1.573 18.355-5.281 26.808-3.677 7.021-9.137 12.982-15.844 17.301-6.858 4.869-14.592 8.406-22.789 10.422-9.761 2.455-19.752 3.905-29.812 4.324h-108.635v-230.13h111.353c10.051-0.198 20.084 0.968 29.812 3.465 9.493 2.374 18.451 6.484 26.408 12.116 7.892 4.838 14.287 11.722 18.483 19.903 4.734 9.381 7.038 19.775 6.707 30.25 0.391 13.033-3.298 25.868-10.561 36.759-7.68 10.55-18.911 18.057-31.688 21.183l0.291 0.026zM395.774 517.297h49.987c4.45-0.112 8.876-0.689 13.203-1.72 3.791-0.689 7.391-2.162 10.563-4.326 3.496-1.734 6.391-4.454 8.318-7.815 2.178-3.996 3.237-8.492 3.063-13.026 0.351-3.779-0.265-7.582-1.799-11.062-1.531-3.479-3.928-6.521-6.968-8.844-6.924-3.877-14.841-5.688-22.789-5.211h-53.578v52.003zM486.954 381.48c-1.808-3.998-4.682-7.438-8.318-9.951-3.656-2.209-7.652-3.819-11.83-4.769-4.897-1.047-9.884-1.624-14.892-1.72h-56.141v63.153h57.884c9.323 0.517 18.572-1.911 26.405-6.928 3.433-3.186 6.083-7.101 7.752-11.448 1.671-4.347 2.316-9.014 1.885-13.642 0.249-5.032-0.654-10.054-2.639-14.694h-0.107zM718.429 435.123c-2.951 11.436-7.999 22.244-14.892 31.891-7.252 9.719-16.784 17.559-27.781 22.851-10.996 5.29-23.128 7.873-35.356 7.526-12.053 0.156-24.003-2.206-35.067-6.931-9.812-4.513-18.749-10.685-26.405-18.237-7.622-8.134-13.561-17.657-17.482-28.034-4.173-11.208-6.239-23.075-6.1-35.016-0.172-11.806 1.897-23.543 6.1-34.6 3.181-10.433 8.902-19.942 16.663-27.695 7.515-8.062 16.812-14.301 27.171-18.237 11.206-4.157 23.098-6.207 35.067-6.044 17.119-0.291 33.927 4.531 48.219 13.833 15.123 10.177 25.775 25.633 29.812 43.25h-40.269c-2.104-6.474-6.451-12.009-12.279-15.632-7.026-4.636-15.316-7.054-23.766-6.931-10.803-0.694-21.467 2.709-29.812 9.509-3.97 4.336-7.007 9.418-8.932 14.946-1.925 5.525-2.695 11.378-2.264 17.203h120.122c1.157 12.176 0.265 24.457-2.641 36.345h-0.107zM601.055 428.193c0.172 3.612 1.068 7.156 2.641 10.422 0.68 4.243 2.672 8.173 5.702 11.255 3.426 3.635 7.419 6.707 11.832 9.093 5.723 2.835 12.086 4.173 18.483 3.882 4.617 0.419 9.272-0.135 13.656-1.627s8.397-3.884 11.774-7.021c6.079-7.45 9.758-16.524 10.561-26.054l-74.65 0.051z" />
<glyph unicode="&#xe940;" glyph-name="dark-bell" d="M990.693 259.201l-107.628 387.914c-22.986 82.981-73.060 155.889-142.266 207.122-69.201 51.233-153.551 77.847-239.629 75.605-86.075-2.242-168.927-33.211-235.369-87.977s-112.657-130.183-131.289-214.247l-83.246-374.626c-4.028-18.152-3.93-36.972 0.288-55.080s12.446-35.037 24.079-49.535c11.633-14.503 26.373-26.209 43.134-34.25 16.761-8.046 35.113-12.223 53.704-12.229h149.313c9.501-46.791 34.885-88.856 71.852-119.070s83.242-46.721 130.985-46.721c47.746 0 94.020 16.508 130.986 46.721s62.351 72.278 71.852 119.070h143.64c19.127 0.005 37.996 4.436 55.134 12.935 17.139 8.505 32.078 20.846 43.655 36.072 11.582 15.231 19.488 32.924 23.105 51.707 3.611 18.788 2.84 38.152-2.258 56.589h-0.043zM524.622 19.106c-25.593 0.108-50.528 8.117-71.394 22.938s-36.644 35.727-45.175 59.855h233.138c-8.532-24.129-24.307-45.034-45.175-59.855s-45.8-22.83-71.395-22.938zM904.009 201.038c-3.859-5.12-8.866-9.265-14.616-12.105-5.751-2.835-12.083-4.29-18.497-4.247h-698.425c-6.198 0.005-12.318 1.396-17.905 4.080-5.588 2.679-10.502 6.586-14.381 11.42s-6.62 10.477-8.025 16.519c-1.404 6.036-1.436 12.31-0.091 18.362l83.246 374.627c14.669 65.976 50.97 125.155 103.135 168.129s117.197 67.279 184.76 69.049c67.561 1.77 133.782-19.096 188.124-59.28s93.691-97.382 111.794-162.499l107.628-387.914c1.757-6.139 2.064-12.595 0.895-18.869-1.175-6.273-3.789-12.186-7.642-17.273z" />
<glyph unicode="&#xe941;" glyph-name="blur-face" horiz-adv-x="1246" d="M84.048 931.175h1076.094c30.662 0 55.518-24.856 55.518-55.518v-858.55c0-30.662-24.856-55.518-55.518-55.518h-1076.094c-30.662 0-55.518 24.856-55.518 55.518v858.55c0 30.662 24.856 55.518 55.518 55.518z" />
<glyph unicode="&#xe942;" d="M968.393 432.643c0-266.231-215.823-482.054-482.054-482.054s-482.054 215.823-482.054 482.054c0 266.231 215.823 482.054 482.054 482.054s482.054-215.823 482.054-482.054z" />
<glyph unicode="&#xe943;" d="M461.177 328.594l219.070 219.070-62.502 62.502-219.070-219.069-93.753 93.753 0.312-249.696 249.696-0.313-93.753 93.753z" />
<glyph unicode="&#xe944;" d="M39.111 437.764c0 270.497 219.281 489.778 489.778 489.778s489.778-219.281 489.778-489.778c0-270.497-219.281-489.778-489.778-489.778s-489.778 219.281-489.778 489.778z" />
<glyph unicode="&#xe945;" d="M554.502 543.491l-222.58-222.581 63.503-63.505 222.581 222.582 95.255-95.254-0.319 253.695-253.696 0.317 95.255-95.255z" />
<glyph unicode="&#xe946;" horiz-adv-x="1050" d="M521.417 945.532h26.708c274.886 0 497.724-222.839 497.724-497.724s-222.839-497.724-497.724-497.724h-26.708c-274.886 0-497.724 222.839-497.724 497.724s222.839 497.724 497.724 497.724z" />
<glyph unicode="&#xe947;" horiz-adv-x="1050" d="M720.001 366.369c-10.248 4.918-60.245 29.51-69.262 33.196-9.426 3.279-15.982 4.918-22.951-4.918-6.966-10.245-26.228-33.196-31.967-39.752-5.737-6.968-11.884-7.788-22.129-2.46-10.245 4.918-43.032 15.985-81.555 50.41-30.329 27.049-50.41 60.245-56.556 70.491-5.737 10.245-0.819 15.573 4.508 20.9 4.508 4.508 10.245 11.886 15.163 17.623s6.966 10.245 10.245 16.804c3.279 6.966 1.638 12.703-0.819 17.621-2.46 4.918-22.951 54.918-31.148 75.408-8.195 19.671-16.801 17.214-22.951 17.623h-19.671c-6.966 0-17.621-2.46-27.047-12.705-9.016-10.245-35.247-34.834-35.247-84.834 0-49.997 36.475-98.357 41.393-104.915 4.918-6.966 71.719-109.424 173.355-153.274 24.18-10.655 43.032-16.804 57.788-21.312 24.18-7.785 46.308-6.556 63.932-4.096 19.671 2.867 60.245 24.589 68.44 48.359 8.607 23.77 8.607 43.851 5.74 48.359-2.87 4.508-9.016 6.556-19.262 11.474z" />
<glyph unicode="&#xe948;" horiz-adv-x="977" d="M942.387 447.558c0-258.5-209.556-468.056-468.056-468.056s-468.056 209.556-468.056 468.056c0 258.5 209.556 468.056 468.056 468.056s468.056-209.556 468.056-468.056z" />
<glyph unicode="&#xe949;" horiz-adv-x="977" d="M220.818 301.405c0 82.018 0 164.222 0 246.238 0.388 0.77 0.776 1.347 0.97 2.118 5.628 26.568 26.781 44.473 54.144 45.050 21.348 0.385 42.501 0.192 63.848 0.192 1.94 0 3.687 0.193 6.016 0.193 0 5.968 0 11.359 0 16.749 0.194 29.456 20.959 50.634 50.651 50.826 52.010 0.385 103.827 0 155.837 0 7.764 0 15.523-1.347 22.509-4.813 18.828-9.434 27.946-25.028 28.337-45.82 0-5.583 0-10.974 0-17.135 2.523 0 4.464 0 6.405 0 21.541 0 43.273 0.385 64.815-0.192 30.082-0.963 53.565-25.028 53.565-54.676 0.195-77.204 0.195-154.404 0-231.604 0-13.861-4.85-25.991-14.168-36.194-12.032-13.284-27.169-18.87-45.023-18.87-129.634 0-259.078 0-388.715 0-2.135 0-4.27 0.195-6.404 0.195-21.154 1.731-36.679 11.934-46.382 30.417-3.105 5.581-4.464 11.553-6.404 17.324zM474.075 546.874c-67.923 0-123.232-54.87-123.426-122.253-0.194-67.379 55.697-122.829 123.621-122.633 67.924 0.191 123.234 54.868 123.425 122.252 0.195 67.379-55.696 122.827-123.62 122.635z" />
<glyph unicode="&#xe94a;" horiz-adv-x="977" d="M555.967 424.229c-0.195-45.051-37.264-81.245-82.479-80.859-44.831 0.386-81.51 36.966-81.122 81.245 0.388 45.051 37.261 81.244 82.481 80.859 44.632-0.193 81.31-36.966 81.119-81.245z" />
<glyph unicode="&#xe94b;" horiz-adv-x="2025" d="M0-63.436c518.529 775.574 1559.437 1004.302 2021.675 1021.719v-1021.719h-2021.675z" />
<glyph unicode="&#xe94c;" horiz-adv-x="2025" d="M1049.312-63.436c249.396 394.021 750.040 510.221 972.357 519.070v-519.070h-972.357z" />
<glyph unicode="&#xe94d;" d="M1024 451.584c0-279.996-226.982-506.978-506.978-506.978s-506.978 226.982-506.978 506.978c0 279.996 226.982 506.978 506.978 506.978s506.978-226.982 506.978-506.978z" />
<glyph unicode="&#xe94e;" d="M719.729 645.918c12.233-8.899 20.432-22.292 22.792-37.233s-1.31-30.208-10.204-42.444l-225.844-310.522c-5.72-7.868-13.129-14.355-21.68-18.987-8.554-4.632-18.034-7.292-27.748-7.785s-19.416 1.193-28.393 4.937c-8.978 3.744-17.003 9.447-23.49 16.694l-126.397 141.155c-10.092 11.274-15.291 26.093-14.455 41.201 0.836 15.105 7.637 29.263 18.911 39.355 11.274 10.090 26.095 15.291 41.201 14.455 15.108-0.836 29.265-7.64 39.355-18.913l86.011-96.070 190.25 261.572c4.408 6.058 9.964 11.19 16.353 15.103 6.389 3.91 13.488 6.527 20.887 7.694 7.401 1.169 14.958 0.869 22.242-0.883s14.153-4.922 20.211-9.328z" />
<glyph unicode="&#xe94f;" glyph-name="cast" horiz-adv-x="832" d="M192.867 939.156c26.083 0 51.097-10.361 69.54-28.804s28.804-43.457 28.804-69.539c0-26.083-10.361-51.096-28.804-69.539s-43.457-28.804-69.54-28.804c-26.082 0-51.096 10.361-69.539 28.804s-28.804 43.457-28.804 69.539c0 26.082 10.361 51.096 28.804 69.539s43.457 28.804 69.539 28.804zM119.109 693.297h147.516c26.082 0 51.096-10.361 69.539-28.804s28.804-43.457 28.804-69.54v-270.445h-73.758v-368.79h-196.687v368.79h-73.758v270.445c0 26.083 10.361 51.096 28.804 69.54s43.457 28.804 69.539 28.804zM635.412 939.156c26.085 0 51.096-10.361 69.541-28.804 18.438-18.443 28.8-43.457 28.8-69.539s-10.362-51.096-28.8-69.539c-18.445-18.444-43.456-28.804-69.541-28.804-26.082 0-51.096 10.361-69.539 28.804s-28.804 43.457-28.804 69.539c0 26.082 10.361 51.096 28.804 69.539s43.457 28.804 69.539 28.804zM561.655 693.297h147.516c26.080 0 51.098-10.361 69.536-28.804 18.445-18.444 28.806-43.457 28.806-69.54v-270.445h-73.76v-368.79h-196.684v368.79h-73.758v270.445c0 26.083 10.362 51.096 28.804 69.54s43.457 28.804 69.539 28.804z" />
<glyph unicode="&#xe950;" horiz-adv-x="983" d="M981.201 450.523c0-268.301-217.501-485.802-485.802-485.802s-485.802 217.501-485.802 485.802c0 268.301 217.501 485.802 485.802 485.802s485.802-217.501 485.802-485.802z" />
<glyph unicode="&#xe951;" horiz-adv-x="983" d="M729.846 260.178h-293.003l78.135 78.131h214.868zM261.041 260.178v97.665l307.848 306.677c7.422 7.814 19.923 7.814 27.738 0l68.76-68.758c7.811-7.814 7.811-19.924 0-27.738l-307.85-307.847zM768.913 807.115h-546.939c-43.364 0-78.134-34.77-78.134-78.134v-546.938c0-20.722 8.232-40.595 22.885-55.251 14.653-14.651 34.527-22.884 55.249-22.884h546.939c20.722 0 40.595 8.233 55.247 22.884 14.655 14.655 22.888 34.529 22.888 55.251v546.938c0 20.722-8.233 40.596-22.888 55.249-14.651 14.653-34.525 22.885-55.247 22.885z" />
<glyph unicode="&#xe952;" horiz-adv-x="983" d="M197.84 684.12h575.316v-456.417h-575.316v456.417z" />
<glyph unicode="&#xe953;" horiz-adv-x="983" d="M389.605 380.174c18.913 0 34.245 15.331 34.245 34.247 0 18.911-15.332 34.243-34.245 34.243s-34.245-15.331-34.245-34.243c0-18.915 15.332-34.247 34.245-34.247z" />
<glyph unicode="&#xe954;" horiz-adv-x="983" d="M686.858 480.44c25.752-131.772-77.804-257.794-215.060-257.794-120.814 0-219.166 98.353-219.166 219.169 0 10.682 106.023 30.683 157.251 155.881 93.696-114.79 221.086-102.187 249.033-98.353l-40.546 89.038-129.311 58.901 95.887 43.56c-181.362 83.558-387.106-50.957-387.106-249.028 0-151.228 122.734-273.961 273.958-273.961 197.526 0 332.042 204.1 249.303 387.105l-34.243-74.519z" />
<glyph unicode="&#xe955;" horiz-adv-x="983" d="M554.004 380.174c18.915 0 34.247 15.331 34.247 34.247 0 18.911-15.331 34.243-34.247 34.243-18.911 0-34.243-15.331-34.243-34.243 0-18.915 15.331-34.247 34.243-34.247z" />
<glyph unicode="&#xe956;" horiz-adv-x="983" d="M707.383 617.149l-30.138-65.751-30.134 65.751-65.749 30.136 65.749 30.136 30.134 65.75 30.138-65.75 65.749-30.136-65.749-30.136z" />
<glyph unicode="&#xe957;" horiz-adv-x="983" d="M981.201 455.909c0-268.301-217.501-485.802-485.802-485.802s-485.802 217.501-485.802 485.802c0 268.301 217.501 485.802 485.802 485.802s485.802-217.501 485.802-485.802z" />
<glyph unicode="&#xe958;" horiz-adv-x="983" d="M374.915 718.285c14.203 0 27.824-5.642 37.867-15.685s15.684-23.664 15.684-37.867c0-14.203-5.64-27.824-15.684-37.867s-23.664-15.685-37.867-15.685c-14.203 0-27.824 5.642-37.867 15.685s-15.685 23.664-15.685 37.867c0 14.203 5.642 27.824 15.685 37.867s23.664 15.685 37.867 15.685zM334.752 584.406h80.329c14.201 0 27.824-5.642 37.868-15.685 10.039-10.043 15.684-23.666 15.684-37.867v-147.268h-40.165v-200.819h-107.102v200.819h-40.164v147.268c0 14.201 5.642 27.824 15.685 37.867s23.664 15.685 37.867 15.685zM615.899 718.285c14.201 0 27.824-5.642 37.868-15.685s15.684-23.664 15.684-37.867c0-14.203-5.64-27.824-15.684-37.867s-23.667-15.685-37.868-15.685c-14.205 0-27.824 5.642-37.868 15.685s-15.684 23.664-15.684 37.867c0 14.203 5.64 27.824 15.684 37.867s23.663 15.685 37.868 15.685zM575.734 584.406h80.327c14.205 0 27.824-5.642 37.868-15.685s15.688-23.666 15.688-37.867v-147.268h-40.165v-200.819h-107.102v200.819h-40.165v147.268c0 14.201 5.644 27.824 15.684 37.867 10.043 10.043 23.667 15.685 37.868 15.685z" />
<glyph unicode="&#xe959;" horiz-adv-x="973" d="M945.939 451.68c0-256.796-208.174-464.97-464.97-464.97s-464.97 208.174-464.97 464.97c0 256.796 208.174 464.97 464.97 464.97s464.97-208.174 464.97-464.97z" />
<glyph unicode="&#xe95a;" horiz-adv-x="973" d="M339.069 766.734c16.712 0 32.739-6.639 44.556-18.456s18.456-27.844 18.456-44.555c0-16.712-6.639-32.739-18.456-44.556s-27.844-18.455-44.556-18.455c-16.711 0-32.738 6.639-44.555 18.455s-18.456 27.844-18.456 44.556c0 16.712 6.639 32.738 18.456 44.555s27.844 18.456 44.555 18.456zM291.811 609.207h94.517c16.711 0 32.738-6.639 44.555-18.455s18.456-27.844 18.456-44.556v-173.281h-47.258v-236.288h-126.022v236.288h-47.258v173.281c0 16.712 6.639 32.739 18.456 44.556s27.844 18.455 44.555 18.455zM622.618 766.734c16.712 0 32.737-6.639 44.554-18.456s18.458-27.844 18.458-44.555c0-16.712-6.641-32.739-18.458-44.556s-27.843-18.455-44.554-18.455c-16.712 0-32.737 6.639-44.554 18.455s-18.458 27.844-18.458 44.556c0 16.712 6.641 32.738 18.458 44.555s27.843 18.456 44.554 18.456zM575.36 609.207h94.515c16.712 0 32.742-6.639 44.559-18.455 11.812-11.817 18.452-27.844 18.452-44.556v-173.281h-47.258v-236.288h-126.024v236.288h-47.258v173.281c0 16.712 6.641 32.739 18.458 44.556s27.843 18.455 44.554 18.455z" />
<glyph unicode="&#xe95b;" glyph-name="checked" d="M140.667 946.067h681.68c75.407 0 136.533-61.128 136.533-136.533v-681.677c0-75.407-61.126-136.533-136.533-136.533h-681.68c-75.406 0-136.534 61.126-136.534 136.533v681.677c0 75.405 61.128 136.533 136.534 136.533zM738.365 614.926c-0.362 12.798-5.789 24.928-15.094 33.724-9.305 8.791-21.722 13.526-34.522 13.164-12.799-0.362-24.929-5.792-33.724-15.096l-239.51-253.609-109.775 109.711c-9.154 8.53-21.261 13.173-33.771 12.952s-24.446-5.288-33.293-14.135c-8.847-8.847-13.915-20.783-14.136-33.293s4.423-24.618 12.953-33.771l144.864-144.865c4.564-4.562 9.996-8.163 15.975-10.59s12.384-3.628 18.835-3.54c6.452 0.089 12.821 1.468 18.73 4.064 5.909 2.593 11.238 6.343 15.673 11.031l273.633 289.729c8.793 9.307 13.524 21.725 13.162 34.524z" />
<glyph unicode="&#xe95c;" d="M995.726 449.131c0-270.311-219.131-489.442-489.442-489.442s-489.442 219.131-489.442 489.442c0 270.311 219.131 489.442 489.442 489.442s489.442-219.131 489.442-489.442z" />
<glyph unicode="&#xe95d;" d="M423.786 502.291c19.573 23.69 49.205 38.836 82.372 38.836s62.798-15.146 82.373-38.836c12.886-15.625 21.062-34.591 23.579-54.687s-0.733-40.494-9.367-58.813c-8.639-18.319-22.307-33.803-39.413-44.652-17.101-10.844-36.938-16.605-57.191-16.605s-40.089 5.761-57.193 16.605c-17.105 10.849-30.772 26.333-39.409 44.652s-11.887 38.717-9.371 58.813c2.516 20.096 10.694 39.062 23.581 54.687h0.039zM651.792 434.328c0 24.544-6.058 47.691-16.777 67.963h162.417c15.446 0 30.267-6.138 41.192-17.063s17.063-25.742 17.063-41.192v-19.418c0-61.632-46.84-124.743-128.744-146.959-8.418 15.123-20.723 27.718-35.641 36.487-14.923 8.763-31.911 13.387-49.217 13.382h-36.896c14.719 13.619 26.462 30.138 34.482 48.521 8.020 18.378 12.148 38.222 12.121 58.277zM642.086 288.693c7.653 0.022 15.241-1.471 22.318-4.392s13.506-7.211 18.917-12.628c5.416-5.411 9.706-11.841 12.628-18.917s4.414-14.665 4.392-22.318v-19.418c0-76.547-72.235-155.346-194.183-155.346-121.946 0-194.181 78.799-194.181 155.346v19.418c-0.020 7.653 1.472 15.241 4.392 22.318s7.211 13.506 12.624 18.917c5.413 5.416 11.843 9.706 18.92 12.628s14.662 4.414 22.317 4.392h271.855zM156.632 424.619c0-61.632 46.837-124.743 128.742-146.959 8.417 15.123 20.722 27.718 35.642 36.487 14.919 8.763 31.911 13.387 49.216 13.382h36.895c-14.72 13.619-26.461 30.138-34.481 48.521-8.021 18.378-12.148 38.222-12.123 58.277 0 24.544 6.058 47.691 16.816 67.963h-162.452c-15.45 0-30.267-6.138-41.192-17.063s-17.063-25.742-17.063-41.192v-19.418zM457.613 647.927c0 28.325-11.252 55.49-31.281 75.519s-47.193 31.281-75.519 31.281c-28.325 0-55.49-11.252-75.518-31.281s-31.281-47.194-31.281-75.519c0-28.325 11.252-55.49 31.281-75.519s47.193-31.281 75.518-31.281c28.325 0 55.49 11.252 75.519 31.281s31.281 47.194 31.281 75.519zM768.302 647.927c0 28.325-11.253 55.49-31.281 75.519s-47.196 31.281-75.517 31.281c-28.327 0-55.49-11.252-75.517-31.281-20.033-20.029-31.286-47.194-31.286-75.519s11.253-55.49 31.286-75.519c20.027-20.029 47.19-31.281 75.517-31.281 28.322 0 55.49 11.252 75.517 31.281s31.281 47.194 31.281 75.519z" />
<glyph unicode="&#xe95e;" glyph-name="complete-profile" d="M513.105 448.725c138.377 0 250.454 112.077 250.454 250.453s-112.077 250.454-250.454 250.454c-138.375 0-250.453-112.078-250.453-250.454s112.079-250.453 250.453-250.453zM513.105 323.498c-167.179 0-500.907-83.903-500.907-250.454v-125.227h1001.816v125.227c0 166.551-333.73 250.454-500.908 250.454z" />
<glyph unicode="&#xe95f;" glyph-name="completeProfile" d="M513.105 449.725c138.377 0 250.454 112.077 250.454 250.453s-112.077 250.454-250.454 250.454c-138.375 0-250.453-112.078-250.453-250.454s112.079-250.453 250.453-250.453zM513.105 324.498c-167.179 0-500.907-83.903-500.907-250.454v-125.227h1001.816v125.227c0 166.551-333.73 250.454-500.908 250.454z" />
<glyph unicode="&#xe960;" d="M479.127 12.371c244.844 0 443.327 198.484 443.327 443.327s-198.484 443.327-443.327 443.327c-244.842 0-443.327-198.484-443.327-443.327s198.484-443.327 443.327-443.327z" />
<glyph unicode="&#xe961;" d="M686.014 721.7l-310.328-319.195-103.443 106.399-103.442-106.399 206.886-212.797 413.772 425.594-103.443 106.399z" />
<glyph unicode="&#xe962;" glyph-name="connect-now" horiz-adv-x="1268" d="M760.403 144.701c33.543 56.959 51.605 122.978 51.605 192.883 0 38.834-5.159 75.079-15.482 110.031-32.251-15.536-59.348-38.834-77.41-68.608 2.584-12.946 2.584-27.185 2.584-40.131 0-37.537-7.743-73.787-20.646-107.442-10.318-24.596-23.22-49.191-38.702-69.9-14.19 23.298-23.22 47.894-29.672 75.079-3.872 15.536-5.164 32.363-5.164 49.191 0 37.542 9.031 72.489 23.225 104.853 11.61 24.596 27.092 46.602 45.154 64.727 20.641 22.005 46.446 40.128 74.825 53.073 20.646 9.061 43.866 15.534 67.087 19.417 10.323 1.295 20.646 2.589 32.256 2.589 6.451 0 14.19 0 20.641-1.295-9.031 37.54-12.902 66.019-14.19 88.025-2.58 0-3.872 0-6.451 0-28.384 0-56.769-3.883-83.861-10.356-21.928-6.473-43.861-14.239-63.215-23.301-14.19 16.828-29.672 33.656-47.733 47.896-12.902 11.651-27.092 22.007-41.287 31.068-16.769-23.301-36.123-45.308-60.635-69.903 9.031-5.178 18.061-10.356 27.092-16.829 16.774-12.945 33.543-28.479 47.738-44.012-15.482-14.239-30.964-31.068-43.866-47.896-41.282-55.662-64.507-122.978-64.507-196.765 0-45.305 9.031-89.317 25.805-129.448 9.031-20.709 19.349-40.131 30.964-56.959-18.066-12.941-36.128-23.298-56.769-32.363-34.831-15.531-73.536-23.298-114.821-23.298-158.686-2.589-290.279 129.448-290.279 292.557 0 99.674 50.315 188.995 126.432 242.069-28.383 23.301-51.605 44.013-68.377 62.136-90.309-71.197-148.365-181.227-148.365-304.205 0-212.3 172.877-385.76 384.458-385.76 63.217 0 122.561 15.536 175.458 42.72 19.354 10.352 38.702 22.006 56.764 36.245 23.225 18.12 45.158 38.834 63.22 60.84 12.898 16.828 25.8 34.953 36.123 53.072zM1094.485 381.596c12.898-29.774 19.349-62.137 19.349-95.793 0-134.627-108.368-243.366-242.542-243.366-32.256 0-63.215 6.471-91.599 18.125-2.58-2.589-3.872-6.476-6.451-9.065-16.774-20.709-36.123-40.126-56.764-58.251 46.441-24.596 99.338-38.834 154.814-38.834 181.906 0 330.274 148.865 330.274 331.391 0 40.126-7.743 78.965-20.646 115.21-24.513-9.065-52.892-15.536-86.435-19.417zM419.824 544.704c136.754 99.676 188.358 177.346 201.261 229.125 6.451 24.595 6.451 50.485-1.292 73.786-18.061 53.074-68.374 89.32-125.143 86.731-39.993-2.589-72.246-38.835-92.888-68.608-24.513 28.479-60.636 59.547-100.63 56.958-56.766-3.883-103.21-45.307-114.822-100.971-5.16-24.595-1.29-50.485 7.741-73.786 18.061-47.896 98.049-119.093 225.772-203.235zM1215.8 637.908c-27.092 18.123-65.799 11.65-95.471 2.589-1.292 31.068-9.031 69.903-36.123 88.025-38.702 27.184-90.312 23.301-125.143-6.472-15.482-12.945-25.805-32.362-32.256-51.78-12.898-41.424 2.584-128.155 43.866-247.246 139.332-5.179 211.583 19.417 246.413 46.602 16.774 12.943 29.676 29.771 36.123 49.189 15.482 42.718 1.292 91.909-37.41 119.094z" />
<glyph unicode="&#xe963;" horiz-adv-x="992" d="M978.346 451.658c0-269.533-218.499-488.032-488.032-488.032s-488.032 218.499-488.032 488.032c0 269.533 218.499 488.032 488.032 488.032s488.032-218.499 488.032-488.032z" />
<glyph unicode="&#xe964;" horiz-adv-x="992" d="M453.027 172.915h-115.331c-24.642 0-48.276 9.789-65.7 27.213-17.425 17.427-27.214 41.059-27.214 65.702v116.144c0 24.643 9.789 48.275 27.214 65.699 17.425 17.427 41.058 27.216 65.7 27.216h205.738c12.573-0.006 24.928-3.258 35.875-9.44 10.947-6.179 20.112-15.082 26.611-25.846l74.726 82.115c6.182 6.797 13.642 12.31 21.955 16.221 8.31 3.914 17.312 6.15 26.49 6.579 9.178 0.432 18.349-0.947 26.992-4.064 8.643-3.114 16.589-7.904 23.379-14.090 13.552-12.448 21.67-29.722 22.614-48.099s-5.37-36.387-17.574-50.16l-157.955-177.398c-21.811-24.461-48.541-44.035-78.445-57.44-29.904-13.408-62.304-20.342-95.075-20.352zM337.696 428.432c-12.32 0-24.138-4.896-32.85-13.606-8.713-8.714-13.607-20.531-13.607-32.851v-116.144c0-12.323 4.895-24.138 13.607-32.851s20.53-13.606 32.85-13.606h115.331c26.202 0.010 52.102 5.558 76.010 16.278s45.277 26.371 62.714 45.93l158.070 177.421c4.106 4.621 6.23 10.672 5.917 16.845s-3.037 11.978-7.587 16.163c-4.627 4.16-10.694 6.352-16.912 6.109-3.082-0.131-6.106-0.874-8.899-2.186-2.79-1.312-5.293-3.168-7.36-5.456l-102.81-113.149c-4.515-12.493-12.336-23.523-22.63-31.917-10.291-8.397-22.672-13.84-35.814-15.747l-119.885-17.142c-6.099-0.877-12.294 0.707-17.226 4.4-4.931 3.696-8.195 9.197-9.069 15.296s0.71 12.298 4.403 17.229c3.693 4.931 9.197 8.192 15.296 9.066l119.907 17.12c6.656 0.931 12.71 4.352 16.941 9.574 4.227 5.222 6.32 11.856 5.846 18.56-0.47 6.704-3.469 12.979-8.39 17.558-4.918 4.579-11.395 7.117-18.115 7.107h-205.738zM500.298 519.629c-10.528-0.029-20.749 3.546-28.966 10.128-39.766 31.917-87.178 79.859-87.178 126.317-0.57 19.086 6.442 37.62 19.501 51.55s31.104 22.121 50.186 22.782c17.36-0.068 34.016-6.872 46.458-18.978 12.442 12.107 29.098 18.91 46.458 18.978 19.085-0.661 37.126-8.852 50.186-22.782s20.070-32.465 19.501-51.55c0-46.458-47.408-94.4-87.2-126.343-8.214-6.566-18.426-10.131-28.944-10.102zM453.84 683.948c-6.752-0.677-12.966-3.977-17.312-9.19-4.342-5.212-6.467-11.922-5.917-18.685 0-20.906 26.736-55.517 69.827-90.106 42.81 34.589 69.546 69.2 69.546 90.106 0.55 6.763-1.574 13.472-5.917 18.685s-10.56 8.513-17.312 9.19c-6.752-0.677-12.966-3.977-17.312-9.19-4.342-5.212-6.467-11.922-5.917-18.685 0-6.161-2.448-12.069-6.803-16.426-4.355-4.355-10.266-6.803-16.426-6.803s-12.067 2.448-16.426 6.803c-4.355 4.357-6.803 10.265-6.803 16.426 0.55 6.763-1.574 13.472-5.917 18.685-4.346 5.213-10.56 8.513-17.312 9.19z" />
<glyph unicode="&#xe965;" d="M1010.958 457.014c0-264-214.014-478.014-478.014-478.014s-478.014 214.014-478.014 478.014c0 264 214.014 478.014 478.014 478.014s478.014-214.014 478.014-478.014z" />
<glyph unicode="&#xe966;" d="M614.389 189.315c-5.16 0.768-10.468 1.695-15.627 2.469-37.315 6.326-70.688 22.528-101.634 43.975-44.143 30.549-81.157 68.818-115.137 110.478-29.732 36.415-55.975 75.3-74.634 118.968-13.046 30.397-21.54 62.184-21.54 95.512 0 54.777 19.569 100.759 62.195 135.477 7.433 6.018 14.411 12.807 21.996 18.825 16.99 13.733 35.041 12.962 50.211-2.777 8.495-8.949 16.535-18.67 23.361-29.009 12.894-19.288 26.092-38.421 33.525-60.795 7.736-22.991 4.702-43.667-13.804-60.486-9.254-8.487-18.658-17.128-28.822-24.226-21.692-15.121-25.030-33.946-16.687-58.634 7.585-22.22 20.631-41.198 34.739-59.406 18.658-24.071 38.682-47.064 62.195-66.503 12.894-10.65 26.547-20.372 43.233-24.070 14.413-3.243 26.701 0.461 37.316 10.798 9.859 9.569 19.723 19.291 30.037 28.547 19.416 17.129 40.653 19.285 63.255 6.946 6.372-3.55 12.743-7.1 18.358-11.577 21.538-17.283 43.537-33.946 60.069-56.627 13.955-18.978 12.897-37.188-4.244-53.077-16.384-15.28-32.011-31.636-51.581-42.746-20.019-11.418-41.108-18.665-64.011-20.981-1.365-0.154-2.583-0.62-3.948-0.927-9.705-0.154-19.263-0.154-28.82-0.154z" />
<glyph unicode="&#xe967;" horiz-adv-x="992" d="M976.282 452.829c0-269.533-218.499-488.032-488.032-488.032s-488.032 218.499-488.032 488.032c0 269.533 218.499 488.032 488.032 488.032s488.032-218.499 488.032-488.032z" />
<glyph unicode="&#xe968;" horiz-adv-x="992" d="M507.507 668.729c0 5.216 2.070 10.218 5.76 13.906 3.686 3.688 8.691 5.76 13.904 5.76 52.141-0.057 102.125-20.794 138.995-57.661 36.867-36.867 57.603-86.854 57.661-138.992 0-5.216-2.074-10.218-5.76-13.907-3.69-3.686-8.691-5.76-13.907-5.76-5.213 0-10.218 2.074-13.904 5.76-3.69 3.69-5.76 8.691-5.76 13.907-0.048 41.709-16.637 81.699-46.131 111.194-29.494 29.491-69.482 46.082-111.194 46.129-5.213 0-10.218 2.072-13.904 5.76-3.69 3.688-5.76 8.69-5.76 13.906zM527.171 570.403c20.864 0 40.87-8.288 55.622-23.040s23.040-34.762 23.040-55.622c0-5.216 2.074-10.218 5.76-13.907 3.69-3.686 8.691-5.76 13.907-5.76s10.218 2.074 13.904 5.76c3.69 3.69 5.76 8.691 5.76 13.907-0.032 31.283-12.474 61.277-34.592 83.398-22.122 22.122-52.115 34.563-83.402 34.592-5.213 0-10.218-2.070-13.904-5.76-3.69-3.686-5.76-8.688-5.76-13.904s2.070-10.218 5.76-13.904c3.686-3.69 8.691-5.76 13.904-5.76zM705.99 359.216c11.395-11.43 17.795-26.909 17.795-43.050 0-16.138-6.4-31.619-17.795-43.046l-17.894-20.63c-161.062-154.195-552.993 237.638-401.176 399.209l22.615 19.666c11.441 11.078 26.781 17.206 42.708 17.059 15.923-0.147 31.149-6.558 42.384-17.845 0.611-0.61 37.050-47.944 37.050-47.944 10.813-11.36 16.832-26.448 16.806-42.131s-6.093-30.752-16.944-42.077l-22.771-28.634c12.602-30.621 31.13-58.448 54.522-81.888 23.392-23.437 51.184-42.022 81.779-54.688l28.81 22.912c11.325 10.842 26.39 16.902 42.070 16.925 15.677 0.019 30.762-6 42.118-16.81 0 0 47.312-36.419 47.923-37.027zM678.931 330.621c0 0-47.059 36.205-47.67 36.813-4.051 4.019-9.523 6.272-15.229 6.272s-11.181-2.253-15.232-6.272c-0.531-0.55-40.195-32.15-40.195-32.15-2.675-2.128-5.856-3.523-9.232-4.048s-6.829-0.16-10.022 1.059c-39.635 14.755-75.638 37.859-105.565 67.744-29.93 29.885-53.088 65.853-67.904 105.469-1.312 3.235-1.741 6.762-1.238 10.218 0.499 3.456 1.914 6.717 4.090 9.446 0 0 31.603 39.686 32.134 40.195 4.016 4.051 6.272 9.526 6.272 15.232s-2.256 11.181-6.272 15.232c-0.608 0.589-36.813 47.687-36.813 47.687-4.112 3.687-9.478 5.662-15.002 5.519-5.52-0.143-10.778-2.392-14.694-6.286l-22.615-19.666c-110.952-133.408 228.688-454.211 345.6-343.731l17.914 20.65c4.198 3.888 6.72 9.258 7.034 14.97 0.31 5.715-1.61 11.325-5.36 15.648z" />
<glyph unicode="&#xe969;" glyph-name="counter-circle" d="M1021.198 447.93c0-272.785-221.136-493.92-493.92-493.92s-493.92 221.136-493.92 493.92c0 272.785 221.136 493.92 493.92 493.92s493.92-221.136 493.92-493.92z" />
<glyph unicode="&#xe96a;" d="M968.132 426.164c0-267.239-216.64-483.878-483.878-483.878s-483.878 216.64-483.878 483.878c0 267.239 216.64 483.878 483.878 483.878s483.878-216.64 483.878-483.878z" />
<glyph unicode="&#xe96b;" d="M338.42 623.623l145.726-145.725 144.971 144.97c3.202 3.409 7.059 6.135 11.343 8.017 4.282 1.881 8.896 2.879 13.574 2.932 10.010 0 19.616-3.978 26.694-11.057s11.059-16.683 11.059-26.696c0.083-4.628-0.774-9.226-2.528-13.511s-4.358-8.166-7.667-11.405l-146.858-144.971 146.858-146.861c6.221-6.086 9.869-14.33 10.195-23.027 0-10.010-3.981-19.616-11.059-26.694s-16.685-11.059-26.694-11.059c-4.813-0.198-9.613 0.608-14.097 2.362s-8.555 4.422-11.953 7.834l-143.838 145.725-145.348-145.348c-3.19-3.296-7-5.926-11.212-7.738-4.212-1.818-8.741-2.778-13.327-2.835-10.013 0-19.615 3.981-26.696 11.059s-11.057 16.685-11.057 26.694c-0.088 4.627 0.771 9.229 2.524 13.51 1.753 4.288 4.363 8.166 7.67 11.405l146.858 144.973-146.858 146.858c-6.222 6.088-9.871 14.331-10.193 23.029 0 10.013 3.978 19.615 11.057 26.696s16.683 11.057 26.696 11.057c9.060-0.113 17.743-3.775 24.161-10.193z" />
<glyph unicode="&#xe96c;" glyph-name="dashboard-active" horiz-adv-x="960" d="M328.28-32h-208.228c-57.263 0-104.114 46.854-104.114 104.115v728.802c0 57.263 46.852 104.114 104.114 104.114h208.228c57.263 0 104.115-46.851 104.115-104.114v-728.802c0-57.261-46.851-104.115-104.115-104.115zM640.621-32h208.23c57.267 0 104.115 46.854 104.115 104.115v260.287c0 57.263-46.848 104.115-104.115 104.115h-208.23c-57.26 0-104.111-46.851-104.111-104.115v-260.287c0-57.261 46.851-104.115 104.111-104.115zM952.966 644.746v156.172c0 57.263-46.848 104.114-104.115 104.114h-208.23c-57.26 0-104.111-46.851-104.111-104.114v-156.172c0-57.263 46.851-104.115 104.111-104.115h208.23c57.267 0 104.115 46.851 104.115 104.115z" />
<glyph unicode="&#xe96d;" glyph-name="dashboard-inactive" horiz-adv-x="960" d="M328.343-32h-208.228c-57.263 0-104.115 46.854-104.115 104.115v728.802c0 57.263 46.851 104.114 104.115 104.114h208.228c57.263 0 104.115-46.851 104.115-104.114v-728.802c0-57.261-46.852-104.115-104.115-104.115zM640.685-32h208.23c57.261 0 104.115 46.854 104.115 104.115v260.287c0 57.263-46.854 104.115-104.115 104.115h-208.23c-57.261 0-104.113-46.851-104.113-104.115v-260.287c0-57.261 46.852-104.115 104.113-104.115zM953.030 644.746v156.172c0 57.263-46.854 104.114-104.115 104.114h-208.23c-57.261 0-104.113-46.851-104.113-104.114v-156.172c0-57.263 46.852-104.115 104.113-104.115h208.23c57.261 0 104.115 46.851 104.115 104.115z" />
<glyph unicode="&#xe96e;" horiz-adv-x="3719" d="M107.874 955.305h3493.705c59.53 0 107.789-48.259 107.789-107.789v-802.719c0-59.53-48.259-107.789-107.789-107.789h-3493.705c-59.53 0-107.789 48.259-107.789 107.789v802.719c0 59.53 48.259 107.789 107.789 107.789z" />
<glyph unicode="&#xe96f;" horiz-adv-x="3719" d="M3428.859 315.352h346.162c29.765 0 53.895-24.129 53.895-53.895v-346.162c0-29.765-24.129-53.895-53.895-53.895h-346.162c-29.765 0-53.895 24.129-53.895 53.895v346.162c0 29.765 24.129 53.895 53.895 53.895z" />
<glyph unicode="&#xe970;" horiz-adv-x="3719" d="M3316.1 446.157h174.36c29.765 0 53.895-24.129 53.895-53.895v-174.36c0-29.765-24.129-53.895-53.895-53.895h-174.36c-29.765 0-53.895 24.129-53.895 53.895v174.36c0 29.765 24.129 53.895 53.895 53.895z" />
<glyph unicode="&#xe971;" glyph-name="date" d="M55.111 82.289c0-81.26 62.14-143.4 143.4-143.4h669.2c81.26 0 143.4 62.14 143.4 143.4v382.4h-956v-382.4zM867.711 799.289h-95.601v47.8c0 28.68-19.119 47.8-47.799 47.8s-47.8-19.12-47.8-47.8v-47.8h-286.8v47.8c0 28.68-19.12 47.8-47.8 47.8s-47.8-19.12-47.8-47.8v-47.8h-95.6c-81.26 0-143.4-62.14-143.4-143.4v-95.601h956v95.601c0 81.26-62.14 143.4-143.4 143.4z" />
<glyph unicode="&#xe972;" glyph-name="deposit" d="M29.6 72.959c0 167.675 0 336.027 0 504.377 1.352 0 3.381 0.676 4.733 0.676 290.727 0 581.454 0 872.182 0 19.607 0 31.101-11.493 31.101-30.425 0-28.397 0-57.469 0-85.865 0-1.352 0-2.704-0.677-5.409-4.056 0-7.437 0-11.493 0-58.822 0-117.643 0.676-176.465-0.676-15.55 0-31.101-2.704-45.299-8.113-66.935-25.692-106.15-108.854-85.191-179.845 20.283-68.287 70.992-106.15 141.984-106.15 54.765 0 110.206 0 164.97 0 3.38 0 7.437 0 11.493 0 0-13.522 0-25.692 0-37.862-0.676-18.255 0.677-37.186-2.028-54.765-6.761-39.214-40.567-75.048-88.571-74.372-243.4 0.677-487.475 0.676-730.874 0.676-25.692 0-45.976 10.819-62.879 29.749-12.17 12.846-18.255 30.425-22.988 48.004zM623.261 950.55c14.874-6.085 20.959-16.903 20.959-33.805-0.677-90.599 0-181.197 0-271.796 0-3.381 0-7.437 0-11.494-131.165 0-260.979 0-392.82 0 0 3.38 0 7.437 0 10.818 0 90.599 0 181.874 0 272.472 0 16.227 6.085 27.72 20.959 33.805 116.967 0 233.934 0 350.901 0zM29.6 679.43c5.409 19.608 13.522 37.187 29.073 50.708 16.227 14.198 34.482 22.311 55.441 22.311 27.045 0 53.413 0 81.134 0 0-39.89 0-79.104 0-119.671-55.441 0-110.206 0-165.647 0 0 15.55 0 31.101 0 46.651zM849.794 216.29c-32.454 0-65.583 0.677-98.036 0-25.692-0.676-44.624 10.142-60.174 29.073-33.805 41.918-29.748 98.036 9.466 135.221 13.522 12.846 29.072 19.608 48.004 18.932 68.962-0.677 137.25 0 206.213 0 20.283 0 31.101-10.819 31.101-31.101 0-40.567 0-81.809 0-122.376 0-18.931-11.494-30.425-29.749-30.425-35.834 0.676-71.668 0.676-106.825 0.676zM761.9 280.521c14.198 0 27.72 12.846 27.72 27.721 0 14.199-12.846 27.721-27.044 27.721-14.875 0.676-28.397-13.522-28.397-27.721 0-14.875 13.522-27.721 27.721-27.721zM817.944 633.454c-39.891 0-78.429 0-117.643 0 0 39.891 0 79.105 0 119.672 21.635-1.353 43.271 2.704 64.23-6.086 31.777-12.846 52.736-43.271 52.736-77.752 0.677-11.493 0.677-22.988 0.677-35.834z" />
</font>
</defs>
</svg>
