<svg width="14" height="13" viewBox="0 0 14 13" fill="none" xmlns="http://www.w3.org/2000/svg">
<path d="M1.32982 -0.00341797L0.570312 0.750157L5.25197 5.43182V8.38678C5.22824 8.55886 5.28757 8.7428 5.42405 8.87928L7.80345 11.2587C8.03486 11.4901 8.40868 11.4901 8.64009 11.2587C8.77657 11.1341 8.83591 10.9442 8.81217 10.7662V8.99202L12.2774 12.4573L13.031 11.7037L8.81217 7.48487V7.47893L7.62544 6.29813L6.43871 5.10547L2.37415 1.04684L1.32982 -0.00341797ZM3.59648 0.750157L4.77728 1.93689H9.97517L7.69071 4.85032L8.81217 5.97178V5.34875L11.6544 1.71141C11.7508 1.58771 11.7942 1.4309 11.7753 1.27524C11.7564 1.11959 11.6767 0.977741 11.5535 0.880698C11.4408 0.797627 11.3162 0.750157 11.1856 0.750157H3.59648ZM6.43871 6.61855L7.62544 7.80528V9.40144L6.43871 8.21471V6.61855Z" fill="#31363D"/>
</svg>
