<svg width="16" height="16" viewBox="0 0 16 16" fill="none" xmlns="http://www.w3.org/2000/svg">
<circle cx="7.56646" cy="8.34118" r="7.5606" fill="#9E1520"/>
<path d="M5.28782 5.25589L7.56479 7.53285L9.82996 5.26769C9.87999 5.21443 9.94026 5.17183 10.0072 5.14243C10.0741 5.11304 10.1462 5.09745 10.2193 5.09662C10.3757 5.09662 10.5258 5.15877 10.6364 5.26939C10.747 5.38002 10.8092 5.53006 10.8092 5.68651C10.8105 5.75883 10.7971 5.83067 10.7697 5.89762C10.7423 5.96456 10.7016 6.02521 10.6499 6.07583L8.35524 8.341L10.6499 10.6357C10.7471 10.7308 10.8041 10.8596 10.8092 10.9955C10.8092 11.1519 10.747 11.302 10.6364 11.4126C10.5258 11.5232 10.3757 11.5854 10.2193 11.5854C10.1441 11.5885 10.0691 11.5759 9.99903 11.5485C9.92896 11.5211 9.86536 11.4794 9.81226 11.4261L7.56479 9.14914L5.29372 11.4202C5.24388 11.4717 5.18434 11.5128 5.11853 11.5411C5.05272 11.5695 4.98195 11.5845 4.9103 11.5854C4.75385 11.5854 4.60381 11.5232 4.49318 11.4126C4.38256 11.302 4.32041 11.1519 4.32041 10.9955C4.31903 10.9232 4.33245 10.8513 4.35984 10.7844C4.38723 10.7174 4.42801 10.6568 4.47968 10.6062L6.77434 8.341L4.47968 6.04634C4.38246 5.95122 4.32545 5.82242 4.32041 5.68651C4.32041 5.53006 4.38256 5.38002 4.49318 5.26939C4.60381 5.15877 4.75385 5.09662 4.9103 5.09662C5.05187 5.09839 5.18754 5.15561 5.28782 5.25589Z" fill="white"/>
</svg>
