<svg width="29" height="29" viewBox="0 0 29 29" fill="none" xmlns="http://www.w3.org/2000/svg">
<path d="M14.6223 0.318604C6.89202 0.318604 0.628784 6.58184 0.628784 14.3121C0.628784 22.0424 6.89202 28.3057 14.6223 28.3057C22.3526 28.3057 28.6158 22.0424 28.6158 14.3121C28.6158 6.58184 22.3526 0.318604 14.6223 0.318604ZM14.6223 25.5972C8.39858 25.5972 3.33721 20.5359 3.33721 14.3121C3.33721 8.0884 8.39858 3.02703 14.6223 3.02703C20.8461 3.02703 25.9074 8.0884 25.9074 14.3121C25.9074 20.5359 20.8461 25.5972 14.6223 25.5972ZM10.1083 13.4093C11.107 13.4093 11.9139 12.6024 11.9139 11.6037C11.9139 10.605 11.107 9.79809 10.1083 9.79809C9.10954 9.79809 8.30266 10.605 8.30266 11.6037C8.30266 12.6024 9.10954 13.4093 10.1083 13.4093ZM19.1364 13.4093C20.1351 13.4093 20.942 12.6024 20.942 11.6037C20.942 10.605 20.1351 9.79809 19.1364 9.79809C18.1376 9.79809 17.3307 10.605 17.3307 11.6037C17.3307 12.6024 18.1376 13.4093 19.1364 13.4093ZM19.3621 17.5058C18.1884 18.9165 16.4561 19.729 14.6223 19.729C12.7885 19.729 11.0562 18.9221 9.88257 17.5058C9.40295 16.9303 8.54529 16.8569 7.97539 17.3309C7.39985 17.8105 7.32649 18.6625 7.80047 19.2381C9.49323 21.2694 11.9816 22.4318 14.6223 22.4318C17.263 22.4318 19.7514 21.2694 21.4442 19.2381C21.9238 18.6625 21.8448 17.8105 21.2692 17.3309C20.6993 16.8569 19.8417 16.9303 19.3621 17.5058Z" fill="#CA2D2C"/>
</svg>
