<svg width="123" height="85" viewBox="0 0 123 85" fill="none" xmlns="http://www.w3.org/2000/svg">
<path d="M5.28906 58.1366C5.28906 65.8936 11.1988 72.2217 18.6109 72.732H100.044C109.36 72.732 116.972 64.975 116.972 55.4829C116.972 46.5012 110.261 39.1524 101.647 38.3359C101.146 22.8219 88.6257 10.3699 73.2004 10.3699C60.8802 10.3699 50.4631 18.331 46.4566 29.3541C44.1528 28.2314 41.6487 27.517 38.9442 27.517C29.9295 27.517 22.6175 34.6616 22.1166 43.6433C21.3153 43.5413 20.6142 43.4392 19.8129 43.4392C11.6996 43.5413 5.28906 50.0735 5.28906 58.1366Z" fill="#9E1520"/>
<g clip-path="url(#clip0_190_15)">
<path d="M59.0531 42.7488C58.7695 42.7488 58.4386 42.6514 58.2022 42.4079C57.7295 41.9209 57.7295 41.1417 58.2022 40.7034L65.1041 33.6904L71.9115 40.7034C72.3843 41.1904 72.3843 41.9696 71.9115 42.4079C71.4388 42.8949 70.6824 42.8949 70.2569 42.4079L65.1041 37.0995L59.9041 42.4079C59.6677 42.6514 59.3368 42.7488 59.0531 42.7488Z" fill="white"/>
<path d="M65.0568 52.4404C64.395 52.4404 63.875 51.9046 63.875 51.2228V35.3949C63.875 34.7131 64.395 34.1774 65.0568 34.1774C65.7187 34.1774 66.2387 34.7131 66.2387 35.3949V51.2228C66.2387 51.9046 65.7187 52.4404 65.0568 52.4404Z" fill="white"/>
<path d="M76.2144 59.9404H53.7122C52.1049 59.9404 50.7812 58.5768 50.7812 56.9209V48.4956C50.7812 47.8138 51.3013 47.2781 51.9631 47.2781C52.6249 47.2781 53.1449 47.8138 53.1449 48.4956V56.9209C53.1449 57.2618 53.3813 57.5053 53.7122 57.5053H76.2144C76.6399 57.5053 76.9708 57.1644 76.9708 56.7261V48.4956C76.9708 47.8138 77.4908 47.2781 78.1526 47.2781C78.8144 47.2781 79.3344 47.8138 79.3344 48.4956V56.7261C79.3344 58.5281 77.9162 59.9404 76.2144 59.9404Z" fill="white"/>
</g>
<defs>
<clipPath id="clip0_190_15">
<rect width="28.5532" height="26.25" fill="white" transform="translate(50.7812 33.6904)"/>
</clipPath>
</defs>
</svg>
